<svg version="1.1" xmlns="http://www.w3.org/2000/svg" xmlns:xlink="http://www.w3.org/1999/xlink" width="155.5557" height="119.76963" viewBox="0,0,155.5557,119.76963"><defs><radialGradient cx="270.13949" cy="194.37475" r="54.33333" gradientUnits="userSpaceOnUse" id="color-1"><stop offset="0" stop-color="#000000"/><stop offset="1" stop-color="#000000" stop-opacity="0"/></radialGradient></defs><g transform="translate(-170.61096,-106.11688)"><g data-paper-data="{&quot;isPaintingLayer&quot;:true}" fill-rule="nonzero" stroke-linejoin="miter" stroke-miterlimit="10" stroke-dasharray="" stroke-dashoffset="0" style="mix-blend-mode: normal"><path d="M326.16667,205.94872c0,9.23307 -24.32586,16.71795 -54.33333,16.71795c-30.00747,0 -54.33333,-7.48488 -54.33333,-16.71795c0,-9.23307 24.32586,-16.71795 54.33333,-16.71795c30.00747,0 54.33333,7.48488 54.33333,16.71795z" fill="url(#color-1)" stroke="none" stroke-width="1" stroke-linecap="butt"/><path d="M178.79168,217.05009c-3.75257,0.75704 -5.11309,-3.53107 -6.31778,-11.73233c-1.20469,-8.20126 -1.92984,-13.38078 1.85801,-13.93718c3.78786,-0.5564 9.35345,3.07551 10.55814,11.27677c1.20469,8.20126 0.00249,13.16195 -6.09838,14.39274z" data-paper-data="{&quot;index&quot;:null}" fill="#a24409" stroke="#330c03" stroke-width="1.5" stroke-linecap="butt"/><path d="M182.80776,203.43872c0,0 7.0965,-19.18121 10.26743,-9.44424c2.17161,6.66836 -4.05118,9.67462 -7.74607,9.98276c-1.7238,0.14375 -2.52137,-0.53852 -2.52137,-0.53852z" data-paper-data="{&quot;index&quot;:null}" fill="none" stroke="#424242" stroke-width="1.5" stroke-linecap="round"/><path d="M183.38279,203.18699c0,0 -12.50391,-7.04316 -5.16887,-14.38527c7.3032,-7.31023 5.16887,14.38527 5.16887,14.38527z" data-paper-data="{&quot;index&quot;:null}" fill="none" stroke="#343434" stroke-width="1.5" stroke-linecap="round"/><path d="M300.12837,187.41025c3.28413,8.27059 -5.43973,19.02154 -16.13963,19.70803c-9.2432,0.59302 -15.12534,-1.75574 -17.09095,-7.93756c-2.69687,-8.48158 3.01945,-17.11053 11.65254,-20.53861c8.63308,-3.42808 18.2939,0.49755 21.57804,8.76814z" data-paper-data="{&quot;index&quot;:null}" fill="#960537" stroke="#0f0314" stroke-width="1.5" stroke-linecap="butt"/><path d="M251.99863,196.92153c-2.02216,1.74627 -28.46694,4.85983 -28.46694,4.85983c0,0 -13.79248,-9.60514 -13.80707,-36.80078c-0.00011,-0.20523 7.29621,5.22635 7.29621,5.22635c0,0 2.42255,14.30313 10.26649,17.12488c4.61622,1.66062 12.52036,-1.81154 18.91484,-1.922c0.57518,-0.00994 2.0543,1.76543 2.0543,1.76543" data-paper-data="{&quot;index&quot;:null}" fill="#960537" stroke="#130614" stroke-width="1.5" stroke-linecap="round"/><path d="M211.25092,157.17887c3.85938,-0.56725 7.44672,2.09385 8.01258,5.94374c0.56586,3.84989 -2.10406,7.4307 -5.96343,7.99795c-3.85936,0.56725 -7.44673,-2.09386 -8.01259,-5.94375c-0.56586,-3.84987 2.10407,-7.43069 5.96344,-7.99794z" data-paper-data="{&quot;index&quot;:null}" fill="#d1d9dd" stroke="#0f0a15" stroke-width="1.5" stroke-linecap="butt"/><path d="M182.70151,200.738l48.60014,-2.02287l0.33931,14.80151l-48.60015,2.02287z" fill="#4236fb" stroke="#170124" stroke-width="1.5" stroke-linecap="butt"/><path d="M189.10151,210.338c0,0 13.22967,-21.8339 21.12437,-22.1625c3.85815,-0.16058 7.14986,11.16078 12.55882,15.39777c6.20816,4.86303 14.31694,2.74186 14.31694,2.74186l-1.06069,13.8015c0,0 -7.29737,3.94492 -10.80519,1.9219c-5.20887,-3.00404 -16.01547,-17.19723 -16.01547,-17.19723c0,0 -9.38787,10.4087 -13.12943,13.76814c-2.72109,2.4432 -7.25005,4.53006 -7.25005,4.53006z" fill="#4236fb" stroke="#170124" stroke-width="1.5" stroke-linecap="butt"/><path d="M222.36058,205.90171c0,0 -3.72051,-7.2797 4.05614,-12.36109c8.1615,-5.33284 41.58082,-13.12276 41.58082,-13.12276l7.32514,24.60574l-10.92865,4.18239c0,0 -23.42737,9.15209 -30.55192,12.36909c-4.17213,1.8839 -6.88316,-4.70899 -6.88316,-4.70899z" data-paper-data="{&quot;index&quot;:null}" fill="#e81231" stroke="#130614" stroke-width="1.5" stroke-linecap="butt"/><path d="M254.11358,198.56149l-29.47661,10.7548" data-paper-data="{&quot;index&quot;:null}" fill="none" stroke="#130614" stroke-width="1.5" stroke-linecap="round"/><path d="M249.44716,195.45138c-0.92226,-2.32256 -0.35531,-4.72736 1.26631,-5.37129c1.62161,-0.64392 3.68383,0.71687 4.60609,3.03945c0.92226,2.32256 0.35532,4.72736 -1.2663,5.37129c-1.62162,0.64392 -3.68383,-0.71687 -4.60609,-3.03945z" data-paper-data="{&quot;index&quot;:null}" fill="#c6c6c6" stroke="#0f0a15" stroke-width="1.5" stroke-linecap="butt"/><path d="M232.79857,220.98451l24.49984,-10.99447" data-paper-data="{&quot;index&quot;:null}" fill="none" stroke="#960537" stroke-width="1.5" stroke-linecap="round"/><path d="M248.86913,208.65669c3.90084,0 7.06308,3.15448 7.06308,7.04573c0,3.89125 -3.16225,7.04574 -7.06308,7.04574c-3.90083,0 -7.06309,-3.15449 -7.06309,-7.04574c0,-3.89124 3.16226,-7.04573 7.06309,-7.04573z" data-paper-data="{&quot;index&quot;:null}" fill="#f9f9f9" stroke="#0f0a15" stroke-width="1.5" stroke-linecap="butt"/><path d="M227.17374,198.88368l9.77729,-3.88242l1.53607,3.86837l-9.77728,3.88242z" data-paper-data="{&quot;index&quot;:null}" fill="#960537" stroke="#130614" stroke-width="1.5" stroke-linecap="butt"/><path d="M231.6991,211.33589l9.77728,-3.88242l1.53607,3.86836l-9.77728,3.88242z" data-paper-data="{&quot;index&quot;:null}" fill="#960537" stroke="#130614" stroke-width="1.5" stroke-linecap="butt"/><path d="M267.35492,189.63766c2.17693,-1.645 8.09899,-1.6098 8.09899,-1.6098c0,0 7.70345,2.70773 13.17078,9.43318c3.78224,4.65259 4.63312,18.39305 1.20766,19.73339c-2.78761,1.09076 -36.26128,4.13119 -36.26128,4.13119l-1.3049,-12.13921l24.44096,-2.53557l-6.21299,-6.82511" data-paper-data="{&quot;index&quot;:null}" fill="#e81231" stroke="#130614" stroke-width="1.5" stroke-linecap="round"/><path d="M230.05074,187.53998c0,0 -4.30255,-12.63558 -1.93482,-15.54871c4.73481,-5.82547 2.12448,-22.06513 2.12448,-22.06513l9.70573,-1.7764c0,0 2.89131,24.0906 1.45472,29.80921c-1.43658,5.71861 -11.3501,9.58103 -11.3501,9.58103z" data-paper-data="{&quot;index&quot;:null}" fill="#eb9f1f" stroke="#432e05" stroke-width="1.5" stroke-linecap="butt"/><path d="M291.69666,156.7342c1.58283,14.89722 -7.57807,28.34858 -21.09878,32.24487c-1.62562,0.46846 -1.41524,9.2357 -3.15581,9.41382c-1.27351,0.13033 -4.6535,-8.22422 -5.90145,-8.2601c-14.644,-0.42109 -26.93839,-12.01106 -28.57229,-27.38892c-1.08983,-10.25727 0.88781,-20.17956 8.20787,-25.69146c3.05973,-2.30394 9.15454,-2.52976 12.98541,-3.77995c1.80098,-0.58773 2.63762,-3.48501 4.58793,-3.70985c0.12387,-0.01427 0.24802,-0.02779 0.37242,-0.04051c16.21739,-1.65951 30.80159,10.52376 32.57472,27.21212z" data-paper-data="{&quot;index&quot;:null}" fill="#f9f9f9" stroke="#0f0a15" stroke-width="1.5" stroke-linecap="butt"/><path d="M276.76214,168.18191c-1.27348,-12.22725 -24.32574,-10.53127 -24.32574,-10.53127c0.86255,-0.28602 -3.97446,0.67006 -8.34756,2.39443c-1.41721,0.55882 -6.07927,3.62014 -7.10467,7.6975c-0.92284,3.66952 0.02456,5.12566 0.02456,5.12566l-2.80376,-7.97971l4.77311,-6.26421l16.04062,-4.7156c0,0 24.90617,0.9186 26.60188,2.12332c8.3132,5.90616 6.4679,15.36176 6.4679,15.36176c0,0 -4.51993,10.68045 -13.88571,14.57752c0,0 3.15993,-12.023 2.55935,-17.7894z" data-paper-data="{&quot;index&quot;:null}" fill="#d1d9dd" stroke="#d1d9dd" stroke-width="1.5" stroke-linecap="round"/><path d="M300.95547,177.32684c0,0 -11.70699,2.65524 -14.43139,-2.75868c-4.69106,-9.32205 -1.41315,-18.16054 -5.60586,-18.86225c-8.47646,-1.41866 -30.79383,-1.26465 -41.4892,7.44378c-7.10317,5.78357 -14.44715,0.95976 -14.44715,0.95976c0,0 0.21811,-4.95777 0.98676,-6.88766c0.85927,-2.15739 3.92731,-5.45037 3.92731,-5.45037c0,0 -1.66022,-7.81998 13.2947,-10.78132c3.51666,-0.69635 6.38537,-6.75326 11.70444,-7.51753c29.17173,-4.19159 25.64566,5.07053 25.64566,5.07053c0,0 12.29086,-2.75507 12.3659,14.33827c0.01337,3.04604 3.1997,1.30086 4.2424,3.06209c4.21847,7.12558 3.80646,21.38341 3.80646,21.38341z" data-paper-data="{&quot;index&quot;:null}" fill="#fade23" stroke="#432e05" stroke-width="1.5" stroke-linecap="butt"/><path d="M231.85641,150.78457c1.17733,-3.88268 3.0085,-5.69447 13.66413,-8.58452c0.67812,-0.29763 3.60366,-4.05572 5.50656,-5.00348c0.89354,-0.44504 1.5102,-1.07477 1.65696,1.03742c0.17566,2.52817 4.62925,0.44818 6.11561,-0.12678c2.39654,-0.92704 4.05635,-1.55343 3.67289,-2.98554c-0.31357,-1.17113 7.7074,-1.07325 9.60726,-0.78396c5.84022,0.88933 6.56652,3.56423 6.0353,4.46668c-0.03958,0.06724 8.26636,0.72579 11.02205,5.48188c1.05173,1.81517 0.42885,7.85046 1.80956,11.04689c0.55702,1.28955 4.09887,1.93733 4.09887,1.93733c0,0 2.55145,2.5766 4.04539,18.24044" data-paper-data="{&quot;index&quot;:null}" fill="none" stroke="#eb9f1f" stroke-width="3" stroke-linecap="round"/><path d="M272.20612,164.2903c-0.40106,-3.14835 -0.47402,-5.73203 -0.16295,-5.77083c0.31106,-0.0388 0.88836,2.48199 1.28944,5.63034c0.40107,3.14836 0.47405,5.73206 0.16298,5.77085c-0.31107,0.0388 -0.88837,-2.48199 -1.28945,-5.63034z" data-paper-data="{&quot;index&quot;:null}" fill="#0f0a15" stroke="#0f0a15" stroke-width="1.5" stroke-linecap="butt"/><g data-paper-data="{&quot;index&quot;:null}" stroke-width="1.5"><path d="M302.28155,159.14291c0,0 -26.0121,-10.57648 -39.48296,-13.28887c-17.46475,2.59893 -38.41383,1.10007 -38.41383,1.10007l1.08916,-16.47217l10.32151,-1.37298c0,0 4.79475,-27.40141 34.60719,-21.3765c28.02253,5.66321 21.65825,32.70566 21.65825,32.70566l13.56597,2.73153z" fill="#2493fa" stroke="#0a0b14" stroke-linecap="butt"/><path d="M271.96832,147.40681c0.00474,-0.05068 12.98994,-2.57996 11.49575,-14.58473c-2.32363,-18.66864 -13.26591,-24.39369 -13.20019,-24.38687c10.91237,1.20873 16.74157,7.36795 19.59612,13.57536c4.205,9.14408 2.16921,19.08137 2.16921,19.08137l12.78446,2.81322l-3.17295,14.13068c0,0 -15.92433,-5.75246 -29.67239,-10.62904z" fill="#0d67bc" stroke="none" stroke-linecap="butt"/><path d="M261.86578,115.79256l9.18845,11.43l-12.9301,13.95424l-7.12435,-16.56749z" fill="#1be0f6" stroke="#0a0b14" stroke-linecap="round"/></g><path d="M246.80126,164.45776c4.44379,-2.04331 7.71428,3 7.71428,3l-5.42857,3.14285" fill="none" stroke="#0f0a15" stroke-width="2.5" stroke-linecap="round"/><path d="M214.39096,162.48666c0,0 2.01602,-14.36992 4.42992,-14.27304c1.7094,0.0686 -0.07254,13.9658 -0.07254,13.9658" fill="#d1d9dd" stroke="#000000" stroke-width="1.5" stroke-linecap="round"/><path d="M215.08696,166.21848c0,0 -4.0379,-0.21624 -3.14285,-1.85715c0.89504,-1.64091 4.57142,-1.42857 4.57142,-1.42857c0,0 3.2502,1.5971 2.85715,3.85714c-0.39305,2.26004 -4,2.71429 -4,2.71429" fill="#d1d9dd" stroke="#000000" stroke-width="1.5" stroke-linecap="round"/><path d="M209.35305,161.68281c-0.28328,2.60526 -1.40219,4.62054 -2.49914,4.50126c-1.09695,-0.11928 -1.75655,-2.32795 -1.47326,-4.93321c0.28329,-2.60526 0.55661,-4.54501 2.49914,-4.50126c1.93539,0.04359 1.75655,2.32795 1.47326,4.93321z" fill="#d1d9dd" stroke="#000000" stroke-width="1.5" stroke-linecap="butt"/><path d="M213.8647,160.76791c-0.28329,2.60525 -1.40219,4.62054 -2.49914,4.50126c-1.09695,-0.11928 -1.75655,-2.32796 -1.47326,-4.93321c0.28329,-2.60525 0.5566,-4.54501 2.49914,-4.50126c1.93539,0.04359 1.75655,2.32796 1.47327,4.93321z" fill="#d1d9dd" stroke="#000000" stroke-width="1.5" stroke-linecap="butt"/><path d="M187.21278,224.4665c-3.12831,2.20648 -6.10303,-1.16846 -10.51365,-8.18688c-4.41064,-7.01844 -7.16353,-11.46531 -3.92199,-13.50242c3.24153,-2.0371 9.7993,-0.95891 14.20994,6.05951c4.41063,7.01843 5.31167,12.04255 0.22571,15.62978z" data-paper-data="{&quot;index&quot;:null}" fill="#be5410" stroke="#330c03" stroke-width="1.5" stroke-linecap="butt"/><path d="M278.56263,176.96424c0.16364,1.6091 -0.46728,2.9912 -1.4092,3.08698c-0.94191,0.09579 -1.83814,-1.131 -2.00178,-2.7401c-0.16364,-1.6091 0.75299,-2.13405 1.69491,-2.22984c0.94191,-0.09579 1.55243,0.27385 1.71607,1.88296z" fill="#e81231" stroke="#130614" stroke-width="1.5" stroke-linecap="butt"/><path d="M187.97442,212.60539c0,0 7.0965,-19.18121 10.26743,-9.44425c2.17161,6.66836 -4.05118,9.67462 -7.74607,9.98276c-1.7238,0.14375 -2.52137,-0.53852 -2.52137,-0.53852z" data-paper-data="{&quot;index&quot;:null}" fill="none" stroke="#8e8e8e" stroke-width="1.5" stroke-linecap="round"/><path d="M187.21612,212.02032c0,0 -12.5039,-7.04316 -5.16887,-14.38527c7.3032,-7.31023 5.16887,14.38527 5.16887,14.38527z" data-paper-data="{&quot;index&quot;:null}" fill="none" stroke="#797979" stroke-width="1.5" stroke-linecap="round"/><path d="M277.8,170.66625v4.4l-3.8,0.8" fill="none" stroke="#0f0a15" stroke-width="1.5" stroke-linecap="round"/></g></g></svg>
