<svg version="1.1" xmlns="http://www.w3.org/2000/svg" xmlns:xlink="http://www.w3.org/1999/xlink" width="81.86457" height="55.98099" viewBox="0,0,81.86457,55.98099"><defs><radialGradient cx="223.93243" cy="182.48139" r="34.66667" gradientUnits="userSpaceOnUse" id="color-1"><stop offset="0" stop-color="#000000"/><stop offset="1" stop-color="#000000" stop-opacity="0"/></radialGradient></defs><g transform="translate(-190.18311,-141.98822)"><g data-paper-data="{&quot;isPaintingLayer&quot;:true}" fill-rule="nonzero" stroke-linejoin="miter" stroke-miterlimit="10" stroke-dasharray="" stroke-dashoffset="0" style="mix-blend-mode: normal"><path d="M259.48256,189.266c-0.14303,4.50806 -15.77197,7.67037 -34.90821,7.06323c-19.13624,-0.60714 -34.53328,-4.75383 -34.39025,-9.26189c0.14303,-4.50806 15.77197,-7.67037 34.90821,-7.06323c19.13624,0.60714 34.53328,4.75383 34.39025,9.26189z" fill="url(#color-1)" stroke="none" stroke-width="1" stroke-linecap="butt"/><path d="M216.10457,182.59812c-1.6429,-0.51642 -2.26443,-2.34776 -2.26443,-2.34776c0,0 1.86941,-2.5044 2.7962,-3.43798c0.68716,-0.69217 2.26394,-1.65924 2.26394,-1.65924c0,0 2.53868,1.31459 2.98736,3.27617" data-paper-data="{&quot;index&quot;:null}" fill="#4c7d3f" stroke="#021f0c" stroke-width="1" stroke-linecap="round"/><path d="M217.94896,188.67195c-2.8431,-1.91618 -3.00121,-6.1913 -0.60945,-8.81435c2.39176,-2.62305 5.37559,-2.13201 8.26339,-0.28189c3.00597,1.92582 3.35893,4.45324 1.3081,7.34601c-2.23741,3.15588 -6.09192,3.68462 -8.96205,1.75024z" data-paper-data="{&quot;index&quot;:null}" fill="#4c7d3f" stroke="#021f0c" stroke-width="1" stroke-linecap="butt"/><g data-paper-data="{&quot;index&quot;:null}" fill="#4c7d3f" stroke="#021f0c" stroke-width="1"><path d="M244.35015,190.98272c2.4379,-4.63092 9.57594,-5.33789 9.57594,-5.33789l3.45331,4.47668c0,0 -1.00874,8.4647 -15.04005,7.03278" data-paper-data="{&quot;index&quot;:null}" stroke-linecap="round"/><path d="M252.10978,188.9178c-0.73766,-1.784 0.12819,-3.80407 1.93392,-4.51193c1.80573,-0.70788 3.86754,0.16449 4.60519,1.94849c0.73766,1.784 -0.12819,3.80408 -1.93392,4.51194c-1.80573,0.70788 -3.86754,-0.16449 -4.60519,-1.9485z" data-paper-data="{&quot;index&quot;:null}" stroke-linecap="butt"/></g><path d="M231.25305,170.81343c-5.26237,4.24145 -3.34232,8.11 0.51729,13.3227c0.12996,0.17552 -7.80418,3.38343 -10.04786,1.59767c-4.95617,-2.94886 -1.36877,-10.71262 0.45555,-12.81301c3.2206,-3.70795 9.322,-2.30643 9.07502,-2.10736z" data-paper-data="{&quot;index&quot;:null}" fill="#7f9e66" stroke="#021f0c" stroke-width="1" stroke-linecap="butt"/><path d="M226.18937,179.792c4.79827,-6.05317 14.66669,-4.48159 22.53528,2.09455c0.79459,0.32867 6.48894,3.19412 5.77532,3.70394c-1.6843,13.02512 -24.10086,14.27923 -28.04288,8.85318c-3.42893,-4.71982 -1.09553,-13.60737 -0.26774,-14.65169z" data-paper-data="{&quot;index&quot;:null}" fill="#7f9e66" stroke="#021f0c" stroke-width="1" stroke-linecap="butt"/><path d="M221.40909,186.28992l2.09091,-7.63636l5.27273,2.54545l0.27273,5.09091z" fill="#7f9e66" stroke="none" stroke-width="0" stroke-linecap="butt"/><g stroke-width="1" stroke-linecap="round"><path d="M227.89928,194.67628c-6.62496,4.67254 -13.33362,-6.06795 -13.33362,-6.06795l1.24929,-5.65479c0,0 11.6984,-2.75173 13.72348,2.17681" data-paper-data="{&quot;index&quot;:null}" fill="#7f9e66" stroke="#021f0c"/><path d="M216.28338,190.74325c-2.46894,1.82604 -5.67365,0.55393 -5.67365,0.55393c0,0 -0.43239,-2.34004 -0.34551,-3.58646c0.11719,-1.6811 0.98537,-5.59199 0.98537,-5.59199c0,0 3.97594,-1.11231 5.4368,1.368" data-paper-data="{&quot;index&quot;:null}" fill="#7f9e66" stroke="#021f0c"/><path d="M210.72992,186.28384l2.70212,0.38228" data-paper-data="{&quot;index&quot;:null}" fill="none" stroke="#021f0c"/><path d="M212.10558,182.97023c2.33064,-1.21328 4.72406,0.69314 4.87889,0.65785c2.73896,-0.6239 8.56155,-2.31982 11.8831,1.88779" data-paper-data="{&quot;index&quot;:null}" fill="none" stroke="#4c7d3f"/></g><path d="M242.20413,193.11017c0,0 -0.8253,-4.43567 -3.18025,-7.37288c-2.43845,-3.04138 -1.25361,-6.67266 1.06298,-7.1757c0.3737,-0.08115 2.28959,5.97499 5.72896,8.66637c3.21968,2.51945 8.03883,0.24489 8.04434,0.2765c0.34184,1.95906 -2.55444,7.68014 -4.49735,6.46705c-3.0947,-1.93226 -7.15868,-0.86132 -7.15868,-0.86132z" data-paper-data="{&quot;index&quot;:null}" fill="#6aaf44" stroke="#0b2508" stroke-width="1" stroke-linecap="butt"/><path d="M235.75496,165.47373c0.26467,-0.44343 1.92798,-2.74601 3.76553,-6.46062c2.24555,-4.53939 0.71545,-16.02815 5.871,-16.48275c1.00957,-0.08903 2.02842,8.57559 1.89855,11.52029c-0.17589,3.9881 -2.90653,13.39902 -2.90653,13.39902c0,0 -9.11112,-1.16738 -8.62854,-1.97595z" data-paper-data="{&quot;index&quot;:null}" fill="#182507" stroke="#000201" stroke-width="1" stroke-linecap="butt"/><path d="M251.82814,184.80642c-0.13132,-0.09018 2.00596,-0.28035 3.14566,-0.74005c1.39853,-0.5641 4.73632,-2.55013 4.93808,-2.58511c6.25121,-1.08432 11.77113,1.92868 11.63328,3.0987c-0.13657,1.15905 -4.73932,2.19266 -10.02225,2.32944c-3.38189,0.08756 -7.22355,-0.40579 -9.69477,-2.10296z" data-paper-data="{&quot;index&quot;:null}" fill="#def2c2" stroke="#333b32" stroke-width="1" stroke-linecap="butt"/><path d="M262.31481,182.33154c0,0 -1.0607,1.33685 -1.84799,1.82807c-0.81735,0.50998 -2.96927,1.17766 -2.96927,1.17766" data-paper-data="{&quot;index&quot;:null}" fill="none" stroke="#b4d892" stroke-width="1" stroke-linecap="round"/><path d="M251.55489,185.63451c-0.10842,0.01033 -5.46607,2.65632 -11.24936,-0.97528c-5.64111,-3.5423 -8.23541,-5.83794 -6.00444,-14.61562c1.43829,-5.65888 6.3532,-11.84987 15.3106,-10.28524c8.9574,1.56462 13.7543,7.70252 13.51606,16.22824c-0.24479,8.7593 -7.8577,10.17606 -11.57283,9.6479z" data-paper-data="{&quot;index&quot;:null}" fill="#7f9e66" stroke="#021f0c" stroke-width="1" stroke-linecap="butt"/><path d="M254.32706,186.33988c-5.02766,0.6002 -13.71175,-0.74827 -17.17408,-4.43512c-4.24405,-4.51925 -2.73205,-7.63304 -2.236,-11.55727c0,0 5.84727,-3.89762 10.18814,-4.03216" data-paper-data="{&quot;index&quot;:null}" fill="none" stroke="#4c7d3f" stroke-width="1" stroke-linecap="round"/><path d="M245.41256,166.09586c-2.25482,-1.45468 -10.97117,3.79078 -11.09384,3.73692c-0.74106,-0.32541 1.83402,-9.69759 8.35534,-9.39707c0.75894,0.03498 2.12275,-2.22206 1.01225,-14.54577c-0.00146,-0.0034 -0.4262,-1.43577 0.59143,-2.62459c1.5559,-1.81766 2.84089,0.12307 2.84089,0.12307c0,0 3.44558,18.53821 9.82746,19.02275c3.10998,0.37675 3.961,4.46325 3.96123,4.90638c0.00204,3.8863 -7.20349,6.4908 -7.20349,6.4908c0,0 -6.09676,-3.23487 -8.29128,-7.71245z" data-paper-data="{&quot;index&quot;:null}" fill="#2a3c10" stroke="#021707" stroke-width="1" stroke-linecap="butt"/><path d="M239.85096,188.05677c-5.28357,0.10252 -9.92104,-0.72182 -10.10076,-1.87372c-0.18142,-1.16278 3.92769,-5.10486 10.21413,-4.30448c0.2029,0.02584 4.90562,2.54075 6.32404,3.04107c1.1559,0.40771 3.29848,0.50094 3.17064,0.59699c-2.40576,1.80763 -6.22574,2.47452 -9.60804,2.54015z" data-paper-data="{&quot;index&quot;:null}" fill="#def2c2" stroke="#333b32" stroke-width="1" stroke-linecap="butt"/><path d="M258.30731,182.5725l-2.04282,0.59092" data-paper-data="{&quot;index&quot;:null}" fill="none" stroke="#2a3c10" stroke-width="1" stroke-linecap="round"/><path d="M249.12954,181.17723l2.27862,1.66328" data-paper-data="{&quot;index&quot;:null}" fill="none" stroke="#2a3c10" stroke-width="1" stroke-linecap="round"/><path d="M251.5993,185.40514c-4.43801,0.2613 -10.86145,-2.13035 -11.85837,-4.50991" data-paper-data="{&quot;index&quot;:null}" fill="none" stroke="#021f0c" stroke-width="1" stroke-linecap="round"/><path d="M239.73021,174.81727c-2.86858,-5.39127 3.52874,-7.26805 6.67056,-4.14734c2.49922,2.16522 2.01345,6.90425 2.01345,6.90425c0,0 -6.78825,0.80604 -8.684,-2.7569z" data-paper-data="{&quot;index&quot;:null}" fill="#2a3c10" stroke="#021707" stroke-width="1" stroke-linecap="round"/><path d="M247.09337,173.86258c-0.09666,2.04534 -1.2485,3.65267 -2.57268,3.5901c-1.32419,-0.06258 -2.31931,-1.77137 -2.22264,-3.81672c0.09666,-2.04534 1.2485,-3.65267 2.57268,-3.5901c1.32419,0.06258 2.31931,1.77137 2.22264,3.81672z" data-paper-data="{&quot;index&quot;:null}" fill="#f9f9f9" stroke="#251933" stroke-width="1" stroke-linecap="butt"/><path d="M259.28863,171.84274c1.9416,-2.65371 4.80237,0.07358 2.69221,5.00747c-1.39456,3.26067 -4.58751,1.53768 -4.58751,1.53768c0,0 0.39292,-4.74754 1.8953,-6.54515z" data-paper-data="{&quot;index&quot;:null}" fill="#2a3c10" stroke="#021707" stroke-width="1" stroke-linecap="round"/><path d="M231.02543,185.88257c1.44241,-1.47344 4.25542,-3.44984 8.92507,-2.8116" data-paper-data="{&quot;index&quot;:null}" fill="none" stroke="#b4d892" stroke-width="1" stroke-linecap="round"/><g stroke-linecap="butt"><path d="M245.03312,173.45227c0,0.63728 -0.15916,1.8421 -0.76185,1.8421c-0.60269,0 -0.61116,-0.65032 -0.61116,-1.8421c0,-1.19178 0.08131,-2.1579 0.61116,-2.1579c0.68054,0 0.76185,0.96613 0.76185,2.1579z" fill="#e81231" stroke="#e81231" stroke-width="1"/><path d="M245.2017,174.45227c0.00586,0.38296 -0.31917,1.1221 -0.92185,1.1221c-0.60269,0 -0.84199,-0.60339 -0.85116,-1.2021c-0.00917,-0.59871 0.18285,0.54045 0.88206,0.60772c0.474,0.0456 0.8851,-0.91068 0.89096,-0.52772z" fill="#9a0a42" stroke="#9a0a42" stroke-width="0.5"/><path d="M244.03503,172.09345c0,0.28719 -0.22386,0.52 -0.5,0.52c-0.27614,0 -0.5,-0.23281 -0.5,-0.52c0,-0.28719 0.22386,-0.52 0.5,-0.52c0.27614,0 0.5,0.23281 0.5,0.52z" fill="#f9f9f9" stroke="none" stroke-width="0"/></g><path d="M261.17917,175.17807c-0.0598,1.72333 -0.77246,3.0776 -1.59175,3.02489c-0.8193,-0.05273 -1.43499,-1.49249 -1.37518,-3.21583c0.0598,-1.72333 0.77246,-3.0776 1.59175,-3.02489c0.8193,0.05273 1.43499,1.49249 1.37518,3.21583z" data-paper-data="{&quot;index&quot;:null}" fill="#f9f9f9" stroke="#251933" stroke-width="1" stroke-linecap="butt"/><g stroke-linecap="butt"><path d="M259.90448,174.83236c0,0.53695 -0.09848,1.55208 -0.47137,1.55208c-0.37289,0 -0.37813,-0.54794 -0.37813,-1.55208c0,-1.00414 0.05031,-1.81817 0.37813,-1.81817c0.42106,0 0.47137,0.81402 0.47137,1.81817z" fill="#e81231" stroke="#e81231" stroke-width="1"/><path d="M260.00878,175.67492c0.00363,0.32267 -0.19748,0.94545 -0.57037,0.94545c-0.37289,0 -0.52095,-0.5084 -0.52662,-1.01285c-0.00567,-0.50445 0.11313,0.45537 0.54574,0.51204c0.29327,0.03842 0.54762,-0.76731 0.55125,-0.44464z" fill="#9a0a42" stroke="#9a0a42" stroke-width="0.5"/><path d="M259.28694,173.68747c0,0.24197 -0.13851,0.43813 -0.30936,0.43813c-0.17085,0 -0.30935,-0.19616 -0.30935,-0.43813c0,-0.24197 0.13851,-0.43813 0.30935,-0.43813c0.17085,0 0.30936,0.19616 0.30936,0.43813z" fill="#f9f9f9" stroke="none" stroke-width="0"/></g><g stroke-width="1"><path d="M235.55337,190.83039c2.58317,-4.65887 9.65833,-5.28992 9.65833,-5.28992l3.23989,4.57255c0,0 -1.7829,7.00722 -8.94673,7.23756" data-paper-data="{&quot;index&quot;:null}" fill="#7f9e66" stroke="#021f0c" stroke-linecap="round"/><path d="M246.73616,191.38315c0,0 -1.21187,4.86683 -7.12755,5.42822" data-paper-data="{&quot;index&quot;:null}" fill="none" stroke="#4c7d3f" stroke-linecap="round"/><path d="M242.91571,187.64594c-0.06984,-1.9354 1.43955,-3.56087 3.37129,-3.63057c1.93175,-0.0697 3.55434,1.44275 3.62417,3.37815c0.06984,1.9354 -1.43954,3.56087 -3.37128,3.63057c-1.93175,0.0697 -3.55435,-1.44275 -3.62418,-3.37815z" data-paper-data="{&quot;index&quot;:null}" fill="#7f9e66" stroke="#021f0c" stroke-linecap="butt"/></g></g></g></svg>
