<svg version="1.1" xmlns="http://www.w3.org/2000/svg" xmlns:xlink="http://www.w3.org/1999/xlink" width="113.45889" height="186.30225" viewBox="0,0,113.45889,186.30225"><g transform="translate(-189.24009,-111.01701)"><g data-paper-data="{&quot;isPaintingLayer&quot;:true}" fill-rule="nonzero" stroke-linejoin="miter" stroke-miterlimit="10" stroke-dasharray="" stroke-dashoffset="0" style="mix-blend-mode: normal"><g stroke-linecap="round"><path d="M259.38414,205.81632c0,0 10.51878,-3.47946 14.77803,-5.4677c6.63324,-3.09641 19.75753,-12.36224 19.75753,-12.36224l5.98775,5.37264c0,0 -16.91735,19.88585 -29.76487,23.83899c-6.22049,1.91403 -13.36507,-0.05725 -15.24563,-1.95518" data-paper-data="{&quot;index&quot;:null}" fill="#960537" stroke="#130614" stroke-width="1.5"/><path d="M283.46518,207.10978c0,0 -6.56185,5.6996 -12.64742,7.41289c-7.14562,2.01175 -13.16217,0.38445 -13.16217,0.38445" fill="none" stroke="#e81231" stroke-width="2"/></g><path d="M301.94898,190.20107c0,3.89125 -3.16226,7.04574 -7.06309,7.04574c-3.90083,0 -7.06308,-3.15449 -7.06308,-7.04574c0,-3.89125 3.16224,-7.04573 7.06308,-7.04573c3.90083,0 7.06309,3.15449 7.06309,7.04573z" fill="#d1d9dd" stroke="#0f0a15" stroke-width="1.5" stroke-linecap="butt"/><g data-paper-data="{&quot;index&quot;:null}" stroke-width="1.5"><path d="M259.01919,289.37913l-11.72025,-47.1138l14.28382,-4.01664l11.72025,47.11382z" fill="#4236fb" stroke="#170124" stroke-linecap="butt"/><path d="M259.42536,284.86462l-8.76296,-37.08076" fill="none" stroke="#3611be" stroke-linecap="round"/></g><path d="M268.46809,283.8983c8.28927,0 12.69147,4.97869 12.69147,8.80718c0,3.8285 -5.2299,3.86379 -13.51918,3.86379c-8.28926,0 -12.72959,-0.72288 -12.52594,-4.54563c0.33108,-6.21495 5.06438,-8.12534 13.35365,-8.12534z" data-paper-data="{&quot;index&quot;:null}" fill="#be5410" stroke="#330c03" stroke-width="1.5" stroke-linecap="butt"/><path d="M265.34594,286.21103c0,0 -1.17599,0.62143 -3.2386,-0.05703c-4.42111,-1.45427 -11.13065,-7.01049 -6.50457,-14.7118c6.75488,-11.24523 9.74316,14.76883 9.74316,14.76883z" data-paper-data="{&quot;index&quot;:null}" fill="none" stroke="#8e8e8e" stroke-width="1.5" stroke-linecap="round"/><path d="M277.01606,269.22621c6.78432,11.29427 -10.57087,16.47345 -10.57087,16.47345c0,0 3.81599,-27.71868 10.57087,-16.47345z" data-paper-data="{&quot;index&quot;:null}" fill="none" stroke="#797979" stroke-width="1.5" stroke-linecap="round"/><g stroke-width="1.5"><path d="M228.3953,285.41632l5.06171,-48.37814l14.69367,1.81541l-5.06171,48.37815z" fill="#4236fb" stroke="#170124" stroke-linecap="butt"/><path d="M234.72181,243.47848l-4.41442,37.89652" fill="none" stroke="#3611be" stroke-linecap="round"/></g><path d="M248.62727,199.46227c0,7.44471 -7.58954,14.2551 -18.99038,14.75496c-8.30951,0.36432 -13.90042,-3.32251 -17.57319,-10.38312c-4.25158,-8.17334 4.44522,-17.85168 15.87256,-17.85168c11.42734,0 20.69101,6.03514 20.69101,13.47985z" fill="#960537" stroke="#0f0314" stroke-width="1.5" stroke-linecap="butt"/><path d="M239.78265,243.3784c0,0 -7.128,-0.08651 -6.91683,-4.65939c0.36057,-7.80886 0.22061,-32.96006 0.22061,-32.96006l-0.14613,-11.7007l25.57215,-2.27282c0,0 5.09354,33.93508 3.14919,43.48855c-1.85267,9.10299 -9.99155,8.33172 -9.99155,8.33172z" fill="#e81231" stroke="#130614" stroke-width="1.5" stroke-linecap="butt"/><path d="M268.97196,185.24927c-2.38514,-5.39235 -3.61915,-29.62443 -3.61915,-29.62443l9.86639,0.10552c0,0 0.18015,16.44714 5.83389,21.38573c2.82725,2.46963 0.72876,15.65167 0.72876,15.65167c0,0 -10.42477,-2.12614 -12.80989,-7.51849z" fill="#eb9f1f" stroke="#432e05" stroke-width="1.5" stroke-linecap="butt"/><path d="M215.94703,172.83286c-1.08129,-16.74742 11.22674,-31.2265 27.49075,-32.33993c0.12476,-0.00855 0.2494,-0.01627 0.3739,-0.0232c1.9602,-0.109 3.27584,2.60453 5.15038,2.87848c3.98735,0.58275 10.03224,-0.2278 13.43822,1.52416c8.14843,4.19135 11.77933,13.63485 12.44393,23.92842c0.99637,15.43229 -9.15556,28.9385 -23.51627,31.83573c-1.22381,0.2469 -3.13875,9.05348 -4.41592,9.1409c-1.74558,0.1195 -3.02434,-8.55654 -4.70584,-8.74267c-13.9855,-1.54808 -25.2939,-13.25196 -26.25913,-28.20191z" fill="#f9f9f9" stroke="#0f0a15" stroke-width="1.5" stroke-linecap="butt"/><path d="M232.05374,181.53344c0.38555,5.78476 5.1328,16.00815 5.1328,16.00815c-10.78611,-1.66429 -15.75082,-10.92288 -15.75082,-10.92288c0,0 -3.42137,-9.00599 3.77041,-16.23581c4.28706,-4.30973 16.23466,-7.9883 24.19365,-8.75184c0,0 -18.16358,7.63621 -17.34605,19.90238z" fill="#d1d9dd" stroke="#d1d9dd" stroke-width="1.5" stroke-linecap="round"/><path d="M217.42797,200.38515c0,0 -6.67641,-12.60479 -6.04508,-20.86135c0.15606,-2.04079 3.78567,-1.88509 2.45026,-4.62283c-7.49388,-15.36325 4.7478,-18.32921 4.7478,-18.32921c0,0 -7.2594,-6.74693 20.75723,-15.89175c5.10845,-1.66744 10.3605,2.49571 13.82242,1.56464c14.72217,-3.9594 16.69235,3.78829 16.69235,3.78829c0,0 4.2082,1.59616 5.93314,3.1509c1.54304,1.3908 3.9317,5.74066 3.9317,5.74066c0,0 -4.4526,7.5748 -13.38138,5.5299c-13.44422,-3.07904 -33.52756,6.65485 -40.50208,11.6767c-3.4498,2.48395 3.39966,8.96073 3.31608,19.39623c-0.04854,6.06057 -11.72242,8.85778 -11.72242,8.85778z" fill="#fade23" stroke="#432e05" stroke-width="1.5" stroke-linecap="butt"/><path d="M246.64078,211.43799l0.88289,31.3649" fill="none" stroke="#130614" stroke-width="1.5" stroke-linecap="round"/><path d="M246.8615,211.41526c0,-1.74479 2.02581,-3.15921 4.52478,-3.15921c2.49898,0 4.52478,1.41443 4.52478,3.15921c0,1.74479 -2.02581,3.15922 -4.52478,3.15922c-2.49898,0 -4.52478,-1.41443 -4.52478,-3.15922z" fill="#c6c6c6" stroke="#0f0a15" stroke-width="1.5" stroke-linecap="butt"/><path d="M218.20451,198.23756c-5.58902,-14.70886 -4.44051,-18.1483 -4.44051,-18.1483c0,0 2.88994,-2.14768 2.81907,-3.5506c-0.17565,-3.47745 -3.40396,-8.61464 -3.26366,-10.70779c0.36759,-5.48444 7.52541,-9.74917 7.46018,-9.79196c-0.87561,-0.57437 -1.40748,-3.29462 3.4369,-6.67561c1.18855,-0.8295 9.213,-4.29665 9.213,-4.29665c0,0 8.18439,-2.95588 9.18262,-2.952c2.12585,0.00825 8.16197,2.58458 8.9018,2.55154c10.83484,-2.12156 13.27855,-1.30668 16.05192,1.65469" fill="none" stroke="#eb9f1f" stroke-width="3" stroke-linecap="round"/><path d="M252.12143,236.595v-10.51991h4.16218v10.51991z" fill="#960537" stroke="#130614" stroke-width="1.5" stroke-linecap="butt"/><path d="M238.87815,236.98464v-10.5199h4.16218v10.5199z" fill="#960537" stroke="#130614" stroke-width="1.5" stroke-linecap="butt"/><path d="M243.93692,291.85317c0.20364,3.82275 -4.23667,4.54563 -12.52594,4.54563c-8.28926,0 -13.51918,-0.03529 -13.51918,-3.86379c0,-3.8285 4.40221,-8.80718 12.69147,-8.80718c8.28926,0 13.02257,1.91038 13.35365,8.12534z" fill="#be5410" stroke="#330c03" stroke-width="1.5" stroke-linecap="butt"/><path d="M232.60617,285.5292c0,0 -17.3552,-5.17918 -10.57087,-16.47345c6.75488,-11.24523 10.57087,16.47345 10.57087,16.47345z" fill="none" stroke="#797979" stroke-width="1.5" stroke-linecap="round"/><path d="M243.44859,271.27173c4.62609,7.70131 -2.08346,13.25753 -6.50457,14.7118c-2.06261,0.67846 -3.2386,0.05703 -3.2386,0.05703c0,0 2.98828,-26.01406 9.74316,-14.76883z" data-paper-data="{&quot;index&quot;:null}" fill="none" stroke="#8e8e8e" stroke-width="1.5" stroke-linecap="round"/><path d="M234.79091,212.56299l-0.33108,28.18294" fill="none" stroke="#960537" stroke-width="1.5" stroke-linecap="round"/><path d="M239.48363,217.08636c-2.04198,1.80981 -9.44398,3.34296 -15.64196,0.97584c-12.80105,-4.88894 -28.65998,-26.2967 -28.65998,-26.2967l6.45619,-5.07888c0,0 12.72175,10.32496 19.25931,13.92534c4.19781,2.31183 14.66205,6.56226 14.66205,6.56226" data-paper-data="{&quot;index&quot;:null}" fill="#e81231" stroke="#130614" stroke-width="1.5" stroke-linecap="round"/><path d="M200.4781,193.8699c-3.40809,1.89776 -7.70553,0.68018 -9.59862,-2.71952c-1.89309,-3.39971 -0.66496,-7.69416 2.74312,-9.59192c3.40808,-1.89776 7.70554,-0.68018 9.59864,2.71953c1.89309,3.3997 0.66495,7.69416 -2.74313,9.59191z" data-paper-data="{&quot;index&quot;:null}" fill="#f9f9f9" stroke="#0f0a15" stroke-width="1.5" stroke-linecap="butt"/><path d="M237.46026,216.92537c0,0 -7.74195,1.268 -14.91687,-1.68482c-10.59108,-4.35875 -22.27743,-20.25543 -22.27743,-20.25543" data-paper-data="{&quot;index&quot;:null}" fill="none" stroke="#960537" stroke-width="3" stroke-linecap="round"/><g data-paper-data="{&quot;index&quot;:null}" stroke="#0f0a15"><path d="M270.56888,175.09861l-11.5,1c0,0 2.36794,-0.37886 2,-3" fill="none" stroke-width="1.5" stroke-linecap="round"/><path d="M263.18705,176.88025l1.02289,-0.04873c0,0 -0.2822,1.5048 -0.59535,1.49275c-0.31315,-0.01205 -0.42754,-1.44401 -0.42754,-1.44401z" fill="#0f0a15" stroke-width="1.5" stroke-linecap="butt"/><path d="M269.92333,183.31885c-10.54525,0.85126 -9.77777,-2.66667 -9.77777,-2.66667c0,0 7.63872,-3.3382 11.33333,-0.44444" fill="none" stroke-width="1" stroke-linecap="round"/><path d="M268.59,166.87441c0,0 -5.96944,0.97451 -7.62994,0.34721c-1.67274,-0.63192 -1.14784,-4.34721 -1.14784,-4.34721" fill="none" stroke-width="1.5" stroke-linecap="round"/></g><g data-paper-data="{&quot;index&quot;:null}" stroke="#0f0a15"><path d="M249.67333,175.12639c-0.36794,2.62114 2,3 2,3l-11.5,-1" fill="none" stroke-width="1.5" stroke-linecap="round"/><path d="M243.79429,179.24093c-0.31315,0.01206 -0.59535,-1.49274 -0.59535,-1.49274l1.02289,0.04873c0,0 -0.11439,1.43196 -0.42754,1.44401z" fill="#0f0a15" stroke-width="1.5" stroke-linecap="butt"/><path d="M239.59666,181.23552c3.69461,-2.89376 11.33333,0.44445 11.33333,0.44445c0,0 0.76748,3.51793 -9.77777,2.66667" fill="none" stroke-width="1" stroke-linecap="round"/><path d="M249.59666,168.45774c0,0 0.5249,3.71528 -1.14785,4.34721c-1.6605,0.6273 -7.62993,-0.34721 -7.62993,-0.34721" fill="none" stroke-width="1.5" stroke-linecap="round"/></g><g data-paper-data="{&quot;index&quot;:null}" fill="none" stroke="#0f0a15" stroke-width="1.5" stroke-linecap="round"><path d="M262.13444,188.52996l2.77777,0.8c0,0 -8.09359,5.12447 -17.82222,4.64444c-9.72863,-0.48003 -10.55555,-5.11111 -10.55555,-5.11111"/><path d="M236.42333,186.24385c0,0 0.9411,1.2573 0.10387,2.70216c-0.75305,1.29959 -2.54832,1.18673 -2.54832,1.18673"/></g><g stroke-width="1.5"><path d="M200.35066,149.88148l13.43985,-3.2966c0,0 -7.48988,-26.75258 20.27123,-33.583c29.53433,-7.2667 35.47107,19.91018 35.47107,19.91018l11.67725,-2.86426l4.01056,15.81939c0,0 -22.48715,8.46767 -36.0898,11.80419c-13.34561,3.27349 -44.76962,8.02943 -44.76962,8.02943z" fill="#2493fa" stroke="#0a0b14" stroke-linecap="butt"/><path d="M205.2837,164.69993l-3.39359,-13.569l13.43985,-3.29661c0,0 -8.02685,-29.5209 20.41982,-33.68753c0.06538,-0.00956 -10.87678,5.30479 -12.41748,24.05429c-0.99073,12.05676 6.97212,21.82344 6.97897,21.87388c-12.84997,2.28015 -25.02758,4.62498 -25.02758,4.62498z" fill="#0d67bc" stroke="none" stroke-linecap="butt"/><path d="M252.41405,131.48262l-6.1668,17.07907l-13.7608,-13.62924l8.7023,-11.80434z" fill="#1be4fa" stroke="#0a0b14" stroke-linecap="round"/></g></g></g></svg>