<svg version="1.1" xmlns="http://www.w3.org/2000/svg" xmlns:xlink="http://www.w3.org/1999/xlink" width="128.2931" height="219.88435" viewBox="0,0,128.2931,219.88435"><g transform="translate(-177.74857,-77.43491)"><g data-paper-data="{&quot;isPaintingLayer&quot;:true}" fill-rule="nonzero" stroke-linejoin="miter" stroke-miterlimit="10" stroke-dasharray="" stroke-dashoffset="0" style="mix-blend-mode: normal"><g stroke-linecap="round"><path d="M246.69312,199.21291c0,0 6.54426,-8.94003 8.85779,-13.03171c3.60305,-6.37226 8.90923,-21.53626 8.90923,-21.53626l7.9945,0.898c0,0 -2.22866,26.01301 -10.39396,36.69074c-3.95346,5.16993 -10.91507,7.71296 -13.54813,7.25949" data-paper-data="{&quot;index&quot;:null}" fill="#960537" stroke="#130614" stroke-width="1.5"/><path d="M267.05085,186.28494c0,0 -2.03355,8.45033 -5.9937,13.37848c-4.64997,5.78661 -10.49342,7.95478 -10.49342,7.95478" fill="none" stroke="#e81231" stroke-width="2"/></g><g stroke-width="1.5"><path d="M271.96214,78.28168l1.7955,13.72127c0,0 27.41501,-4.49623 31.14466,23.84849c3.96787,30.15522 -23.6977,33.06102 -23.6977,33.06102l1.56003,11.92176l-16.165,2.2429c0,0 -5.9381,-23.2833 -7.75534,-37.17078c-1.78292,-13.62506 -3.04709,-45.38178 -3.04709,-45.38178z" fill="#2493fa" stroke="#0a0b14" stroke-linecap="butt"/><path d="M256.69034,81.55173l13.86032,-1.87767l1.79551,13.72127c0,0 30.22564,-4.72488 31.23218,24.0077c0.0023,0.06604 -4.0739,-11.39511 -22.53944,-14.99255c-11.87416,-2.31331 -22.45883,4.5248 -22.50972,4.52605c-0.85025,-13.02298 -1.83887,-25.38481 -1.83887,-25.38481z" fill="#0d67bc" stroke="none" stroke-linecap="butt"/><path d="M284.51177,132.05548l-16.2955,-8.01129l15.06262,-12.1751l10.77349,9.95009z" fill="#1be4fa" stroke="#0a0b14" stroke-linecap="round"/></g><path d="M275.61565,159.86773c0,3.89125 -3.16226,7.04574 -7.06309,7.04574c-3.90083,0 -7.06308,-3.15449 -7.06308,-7.04574c0,-3.89125 3.16224,-7.04573 7.06308,-7.04573c3.90083,0 7.06309,3.15449 7.06309,7.04573z" fill="#d1d9dd" stroke="#0f0a15" stroke-width="1.5" stroke-linecap="butt"/><g data-paper-data="{&quot;index&quot;:null}" stroke-width="1.5"><path d="M241.24419,289.97166l-5.24856,-48.26517l14.69547,-2.05032l5.24856,48.2652z" fill="#4236fb" stroke="#170124" stroke-linecap="butt"/><path d="M242.25647,285.55339l-3.67367,-37.92461" fill="none" stroke="#3611be" stroke-linecap="round"/></g><path d="M253.4681,283.8983c8.28927,0 12.69147,4.97869 12.69147,8.80718c0,3.8285 -5.2299,3.86379 -13.51918,3.86379c-8.28926,0 -12.72959,-0.72288 -12.52594,-4.54563c0.33108,-6.21495 5.06438,-8.12534 13.35365,-8.12534z" data-paper-data="{&quot;index&quot;:null}" fill="#be5410" stroke="#330c03" stroke-width="1.5" stroke-linecap="butt"/><path d="M250.34595,286.21103c0,0 -1.17599,0.62143 -3.2386,-0.05703c-4.42111,-1.45427 -11.13065,-7.01049 -6.50457,-14.7118c6.75488,-11.24523 9.74316,14.76883 9.74316,14.76883z" data-paper-data="{&quot;index&quot;:null}" fill="none" stroke="#8e8e8e" stroke-width="1.5" stroke-linecap="round"/><path d="M262.01607,269.22621c6.78432,11.29427 -10.57087,16.47345 -10.57087,16.47345c0,0 3.81599,-27.71868 10.57087,-16.47345z" data-paper-data="{&quot;index&quot;:null}" fill="none" stroke="#797979" stroke-width="1.5" stroke-linecap="round"/><g stroke-width="1.5"><path d="M217.72864,285.41632l5.06171,-48.37814l14.69367,1.81541l-5.06171,48.37815z" fill="#4236fb" stroke="#170124" stroke-linecap="butt"/><path d="M224.05515,243.47848l-4.41442,37.89652" fill="none" stroke="#3611be" stroke-linecap="round"/></g><path d="M237.96061,202.80129c0,9.2888 -5.91018,17.78616 -14.78832,18.40983c-6.47084,0.45457 -10.82463,-4.14551 -13.68472,-12.95507c-3.31082,-10.19792 3.46161,-22.27363 12.36039,-22.27363c8.89878,0 16.11265,7.53007 16.11265,16.81887z" fill="#960537" stroke="#0f0314" stroke-width="1.5" stroke-linecap="butt"/><path d="M229.11599,243.3784c0,0 -7.128,-0.08651 -6.91683,-4.65939c0.36057,-7.80886 0.22061,-32.96006 0.22061,-32.96006l-0.14613,-11.7007l25.57215,-2.27282c0,0 5.09354,33.93508 3.14919,43.48855c-1.85267,9.10299 -9.99155,8.33172 -9.99155,8.33172z" fill="#e81231" stroke="#130614" stroke-width="1.5" stroke-linecap="butt"/><path d="M258.30531,185.24927c-2.38514,-5.39235 -3.61915,-29.62443 -3.61915,-29.62443l9.86639,0.10552c0,0 0.18015,16.44714 5.83389,21.38573c2.82725,2.46963 0.72876,15.65167 0.72876,15.65167c0,0 -10.42477,-2.12614 -12.80989,-7.51849z" fill="#eb9f1f" stroke="#432e05" stroke-width="1.5" stroke-linecap="butt"/><path d="M205.28037,172.83286c-1.08129,-16.74742 11.22674,-31.2265 27.49075,-32.33993c0.12476,-0.00855 0.2494,-0.01627 0.3739,-0.0232c1.9602,-0.109 3.27584,2.60453 5.15038,2.87848c3.98735,0.58275 10.03224,-0.2278 13.43822,1.52416c8.14843,4.19135 11.77933,13.63485 12.44393,23.92842c0.99637,15.43229 -9.15556,28.9385 -23.51627,31.83573c-1.22381,0.2469 -3.13875,9.05348 -4.41592,9.1409c-1.74558,0.1195 -3.02434,-8.55654 -4.70584,-8.74267c-13.9855,-1.54808 -25.2939,-13.25196 -26.25913,-28.20191z" fill="#f9f9f9" stroke="#0f0a15" stroke-width="1.5" stroke-linecap="butt"/><path d="M221.38708,181.53344c0.38555,5.78476 5.1328,16.00815 5.1328,16.00815c-10.78611,-1.66429 -15.75082,-10.92288 -15.75082,-10.92288c0,0 -3.42137,-9.00599 3.77041,-16.23581c4.28706,-4.30973 16.23466,-7.9883 24.19365,-8.75184c0,0 -18.16358,7.63621 -17.34605,19.90238z" fill="#d1d9dd" stroke="#d1d9dd" stroke-width="1.5" stroke-linecap="round"/><path d="M206.76131,200.38515c0,0 -6.67641,-12.60479 -6.04508,-20.86135c0.15606,-2.04079 3.78567,-1.88509 2.45026,-4.62283c-7.49388,-15.36325 4.7478,-18.32921 4.7478,-18.32921c0,0 -7.2594,-6.74693 20.75723,-15.89175c5.10845,-1.66744 10.3605,2.49571 13.82242,1.56464c14.72217,-3.9594 16.69235,3.78829 16.69235,3.78829c0,0 4.2082,1.59616 5.93314,3.1509c1.54304,1.3908 3.9317,5.74066 3.9317,5.74066c0,0 -4.4526,7.5748 -13.38138,5.5299c-13.44422,-3.07904 -33.52756,6.65485 -40.50208,11.6767c-3.4498,2.48395 3.39966,8.96073 3.31608,19.39623c-0.04854,6.06057 -11.72242,8.85778 -11.72242,8.85778z" fill="#fade23" stroke="#432e05" stroke-width="1.5" stroke-linecap="butt"/><path d="M249.13182,173.69571c0.13839,3.17077 -0.00327,5.75294 -0.31642,5.76743c-0.31315,0.0145 -0.67918,-2.54418 -0.81757,-5.71496c-0.13839,-3.17077 0.00327,-5.75294 0.31641,-5.76743c0.31315,-0.0145 0.67919,2.54417 0.81759,5.71494z" fill="#0f0a15" stroke="#0f0a15" stroke-width="1.5" stroke-linecap="butt"/><path d="M235.97412,211.43799l0.88289,31.3649" fill="none" stroke="#130614" stroke-width="1.5" stroke-linecap="round"/><path d="M236.19484,211.41526c0,-1.74479 2.02581,-3.15921 4.52478,-3.15921c2.49898,0 4.52478,1.41443 4.52478,3.15921c0,1.74479 -2.02581,3.15922 -4.52478,3.15922c-2.49898,0 -4.52478,-1.41443 -4.52478,-3.15922z" fill="#c6c6c6" stroke="#0f0a15" stroke-width="1.5" stroke-linecap="butt"/><path d="M207.53785,198.23756c-5.58902,-14.70886 -4.44051,-18.1483 -4.44051,-18.1483c0,0 2.88994,-2.14768 2.81907,-3.5506c-0.17565,-3.47745 -3.40396,-8.61464 -3.26366,-10.70779c0.36759,-5.48444 7.52541,-9.74917 7.46018,-9.79196c-0.87561,-0.57437 -1.40748,-3.29462 3.4369,-6.67561c1.18855,-0.8295 9.213,-4.29665 9.213,-4.29665c0,0 8.18439,-2.95588 9.18262,-2.952c2.12585,0.00825 8.16197,2.58458 8.9018,2.55154c10.83484,-2.12156 13.27855,-1.30668 16.05192,1.65469" fill="none" stroke="#eb9f1f" stroke-width="3" stroke-linecap="round"/><path d="M241.45477,236.595v-10.51991h4.16218v10.51991z" fill="#960537" stroke="#130614" stroke-width="1.5" stroke-linecap="butt"/><path d="M228.21149,236.98464v-10.5199h4.16218v10.5199z" fill="#960537" stroke="#130614" stroke-width="1.5" stroke-linecap="butt"/><path d="M233.27026,291.85317c0.20364,3.82275 -4.23667,4.54563 -12.52594,4.54563c-8.28926,0 -13.51918,-0.03529 -13.51918,-3.86379c0,-3.8285 4.40221,-8.80718 12.69147,-8.80718c8.28926,0 13.02257,1.91038 13.35365,8.12534z" fill="#be5410" stroke="#330c03" stroke-width="1.5" stroke-linecap="butt"/><path d="M221.93951,285.5292c0,0 -17.3552,-5.17918 -10.57087,-16.47345c6.75488,-11.24523 10.57087,16.47345 10.57087,16.47345z" fill="none" stroke="#797979" stroke-width="1.5" stroke-linecap="round"/><path d="M232.78193,271.27173c4.62609,7.70131 -2.08346,13.25753 -6.50457,14.7118c-2.06261,0.67846 -3.2386,0.05703 -3.2386,0.05703c0,0 2.98828,-26.01406 9.74316,-14.76883z" data-paper-data="{&quot;index&quot;:null}" fill="none" stroke="#8e8e8e" stroke-width="1.5" stroke-linecap="round"/><path d="M224.12425,212.56299l-0.33108,28.18294" fill="none" stroke="#960537" stroke-width="1.5" stroke-linecap="round"/><path d="M228.19301,209.9646c0,0 -3.63976,10.69198 -4.64132,15.37846c-1.5598,7.2986 -2.08679,23.6745 -2.08679,23.6745l-8.06618,1.55374c0,0 -5.79494,-26.00415 -1.10756,-38.88038c2.26952,-6.23439 8.27523,-10.82477 10.98018,-11.18297" fill="#e81231" stroke="#130614" stroke-width="1.5" stroke-linecap="round"/><path d="M224.32212,249.39809c1.32982,3.65697 -0.56402,7.70222 -4.22999,9.03531c-3.66597,1.33309 -7.71586,-0.55079 -9.04568,-4.20776c-1.32982,-3.65697 0.56401,-7.70221 4.22998,-9.0353c3.66597,-1.33309 7.71587,0.55079 9.04569,4.20775z" fill="#f9f9f9" stroke="#0f0a15" stroke-width="1.5" stroke-linecap="butt"/><path d="M233.58747,175.19578c0.13839,3.17077 -0.00327,5.75294 -0.31642,5.76743c-0.31315,0.0145 -0.67918,-2.54418 -0.81757,-5.71496c-0.13839,-3.17077 0.00327,-5.75294 0.31641,-5.76743c0.31315,-0.0145 0.67919,2.54417 0.81759,5.71494z" fill="#0f0a15" stroke="#0f0a15" stroke-width="1.5" stroke-linecap="butt"/><path d="M181.12486,158.93586c0,0 3.86577,-2.3177 7.1904,-6.39309c4.04328,-4.95632 8.07922,-11.94073 13.44704,-13.26679c3.35301,-0.82833 1.32433,15.22789 1.32433,15.22789c0,0 -9.9205,2.38661 -12.31086,5.01133c-2.51114,2.75734 -9.65092,-0.57934 -9.65092,-0.57934z" fill="#fade23" stroke="#432e05" stroke-width="1.5" stroke-linecap="butt"/><path d="M201.51907,153.40721c0,0 -3.14877,-0.41978 -6.20064,1.2075c-2.15598,1.14959 -4.78561,3.17504 -5.97551,3.63741c-1.77855,0.69111 -5.77434,-0.03405 -5.77434,-0.03405" fill="none" stroke="#eb9f1f" stroke-width="3" stroke-linecap="round"/><path d="M228.26879,191.98241l4.36061,-0.41097" fill="none" stroke="#000000" stroke-width="1.5" stroke-linecap="round"/><path d="M214.29465,244.62041c0,0 -4.36202,-19.24184 -0.72107,-30.10061c2.46658,-7.35628 8.49448,-12.37721 8.49448,-12.37721" fill="none" stroke="#960537" stroke-width="3" stroke-linecap="round"/></g></g></svg>