<svg version="1.1" xmlns="http://www.w3.org/2000/svg" xmlns:xlink="http://www.w3.org/1999/xlink" width="128.2931" height="225.88647" viewBox="0,0,128.2931,225.88647"><g transform="translate(-177.74857,-71.43279)"><g data-paper-data="{&quot;isPaintingLayer&quot;:true}" fill-rule="nonzero" stroke-linejoin="miter" stroke-miterlimit="10" stroke-dasharray="" stroke-dashoffset="0" style="mix-blend-mode: normal"><g stroke-width="1.5"><path d="M271.96214,78.28167l1.7955,13.72127c0,0 27.41501,-4.49623 31.14466,23.84849c3.96787,30.15522 -23.6977,33.06102 -23.6977,33.06102l1.56003,11.92176l-16.165,2.2429c0,0 -5.9381,-23.2833 -7.75534,-37.17078c-1.78292,-13.62506 -3.04709,-45.38178 -3.04709,-45.38178z" fill="#2493fa" stroke="#0a0b14" stroke-linecap="butt"/><path d="M256.69034,81.55173l13.86032,-1.87767l1.79551,13.72127c0,0 30.22564,-4.72488 31.23218,24.0077c0.0023,0.06604 -4.0739,-11.39511 -22.53944,-14.99255c-11.87416,-2.31331 -22.45883,4.5248 -22.50972,4.52605c-0.85025,-13.02298 -1.83887,-25.38481 -1.83887,-25.38481z" fill="#0d67bc" stroke="none" stroke-linecap="butt"/><path d="M284.51177,132.05547l-16.2955,-8.01129l15.06262,-12.1751l10.77349,9.95009z" fill="#1be4fa" stroke="#0a0b14" stroke-linecap="round"/></g><g stroke-linecap="round"><path d="M246.69312,199.2129c0,0 6.54426,-8.94003 8.85779,-13.03171c3.60305,-6.37226 8.90923,-21.53626 8.90923,-21.53626l7.9945,0.898c0,0 -2.22866,26.01301 -10.39396,36.69074c-3.95346,5.16993 -10.91507,7.71296 -13.54813,7.25949" data-paper-data="{&quot;index&quot;:null}" fill="#960537" stroke="#130614" stroke-width="1.5"/><path d="M267.05085,186.28493c0,0 -2.03355,8.45033 -5.9937,13.37848c-4.64997,5.78661 -10.49342,7.95478 -10.49342,7.95478" fill="none" stroke="#e81231" stroke-width="2"/></g><path d="M275.61565,159.86772c0,3.89125 -3.16226,7.04574 -7.06309,7.04574c-3.90083,0 -7.06308,-3.15449 -7.06308,-7.04574c0,-3.89125 3.16224,-7.04573 7.06308,-7.04573c3.90083,0 7.06309,3.15449 7.06309,7.04573z" fill="#d1d9dd" stroke="#0f0a15" stroke-width="1.5" stroke-linecap="butt"/><path d="M214.41763,137.47101c-3.86887,-1.5786 -4.44931,-10.72273 -4.17871,-10.55719c5.76565,3.52701 7.93125,3.22373 11.54006,-2.16565c0.12152,-0.18147 5.81355,6.20931 4.88751,8.92325c-1.10793,5.65967 -9.673,4.85062 -12.24887,3.7996z" data-paper-data="{&quot;index&quot;:null}" fill="#7f9e66" stroke="#021f0c" stroke-width="1.5" stroke-linecap="butt"/><path d="M248.24762,124.34075c1.4945,-0.85572 3.26112,-0.06883 3.26112,-0.06883c0,0 0.56977,3.07279 0.62608,4.38708c0.04174,0.97445 -0.31863,2.78872 -0.31863,2.78872c0,0 -2.68869,0.9716 -4.43359,-0.03063" data-paper-data="{&quot;index&quot;:null}" fill="#4c7d3f" stroke="#021f0c" stroke-width="1.5" stroke-linecap="round"/><path d="M242.53577,121.57163c3.33708,-0.78671 6.58343,1.99947 6.88571,5.53634c0.30228,3.53688 -2.08392,5.39442 -5.40283,6.25881c-3.45472,0.89976 -5.55011,-0.55688 -6.28187,-4.02654c-0.7983,-3.78528 1.43021,-6.97441 4.79899,-7.76861z" data-paper-data="{&quot;index&quot;:null}" fill="#4c7d3f" stroke="#021f0c" stroke-width="1.5" stroke-linecap="butt"/><path d="M237.02299,116.23811c5.72776,-4.64027 12.93373,-1.15897 12.93373,-1.15897l0.37851,5.64117c0,0 -5.8156,4.19882 -10.70955,2.34461" data-paper-data="{&quot;index&quot;:null}" fill="#7f9e66" stroke="#021f0c" stroke-width="1.5" stroke-linecap="round"/><path d="M248.9656,114.96134c1.82163,-0.66588 3.8084,0.27384 4.43758,2.09893c0.62919,1.82508 -0.33749,3.8444 -2.15912,4.51027c-1.82163,0.66588 -3.8084,-0.27384 -4.43758,-2.09893c-0.62919,-1.82508 0.33749,-3.8444 2.15912,-4.51027z" data-paper-data="{&quot;index&quot;:null}" fill="#7f9e66" stroke="#021f0c" stroke-width="1.5" stroke-linecap="butt"/><g data-paper-data="{&quot;index&quot;:null}" stroke-width="1.5"><path d="M248.35253,289.37912l-11.72025,-47.1138l14.28382,-4.01664l11.72025,47.11382z" fill="#4236fb" stroke="#170124" stroke-linecap="butt"/><path d="M239.99574,247.78385l8.76296,37.08076" fill="none" stroke="#3611be" stroke-linecap="round"/></g><path d="M257.80143,283.89829c8.28927,0 12.69147,4.97869 12.69147,8.80718c0,3.8285 -5.2299,3.86379 -13.51918,3.86379c-8.28926,0 -12.72959,-0.72288 -12.52594,-4.54563c0.33108,-6.21495 5.06438,-8.12534 13.35365,-8.12534z" data-paper-data="{&quot;index&quot;:null}" fill="#be5410" stroke="#330c03" stroke-width="1.5" stroke-linecap="butt"/><path d="M254.67928,286.21103c0,0 -1.17599,0.62143 -3.2386,-0.05703c-4.42111,-1.45427 -11.13065,-7.01049 -6.50457,-14.7118c6.75488,-11.24523 9.74316,14.76883 9.74316,14.76883z" data-paper-data="{&quot;index&quot;:null}" fill="none" stroke="#8e8e8e" stroke-width="1.5" stroke-linecap="round"/><path d="M266.3494,269.2262c6.78432,11.29427 -10.57087,16.47345 -10.57087,16.47345c0,0 3.81599,-27.71868 10.57087,-16.47345z" data-paper-data="{&quot;index&quot;:null}" fill="none" stroke="#797979" stroke-width="1.5" stroke-linecap="round"/><g stroke-width="1.5"><path d="M217.72864,285.41631l5.06171,-48.37814l14.69367,1.81541l-5.06171,48.37815z" fill="#4236fb" stroke="#170124" stroke-linecap="butt"/><path d="M224.05515,243.47847l-4.41442,37.89652" fill="none" stroke="#3611be" stroke-linecap="round"/></g><path d="M237.96061,202.80128c0,9.2888 -5.91018,17.78616 -14.78832,18.40983c-6.47084,0.45457 -10.82463,-4.14551 -13.68472,-12.95507c-3.31082,-10.19792 3.46161,-22.27363 12.36039,-22.27363c8.89878,0 16.11265,7.53007 16.11265,16.81887z" fill="#960537" stroke="#0f0314" stroke-width="1.5" stroke-linecap="butt"/><path d="M229.11599,243.37839c0,0 -7.128,-0.08651 -6.91683,-4.65939c0.36057,-7.80886 0.22061,-32.96006 0.22061,-32.96006l-0.14613,-11.7007l25.57215,-2.27282c0,0 5.09354,33.93508 3.14919,43.48855c-1.85267,9.10299 -9.99155,8.33172 -9.99155,8.33172z" fill="#e81231" stroke="#130614" stroke-width="1.5" stroke-linecap="butt"/><path d="M258.30531,185.24926c-2.38514,-5.39235 -3.61915,-29.62443 -3.61915,-29.62443l9.86639,0.10552c0,0 0.18015,16.44714 5.83389,21.38573c2.82725,2.46963 0.72876,15.65167 0.72876,15.65167c0,0 -10.42477,-2.12614 -12.80989,-7.51849z" fill="#eb9f1f" stroke="#432e05" stroke-width="1.5" stroke-linecap="butt"/><path d="M205.28037,172.83285c-1.08129,-16.74742 11.22674,-31.2265 27.49075,-32.33993c0.12476,-0.00855 0.2494,-0.01627 0.3739,-0.0232c1.9602,-0.109 3.27584,2.60453 5.15038,2.87848c3.98735,0.58275 10.03224,-0.2278 13.43822,1.52416c8.14843,4.19135 11.77933,13.63485 12.44393,23.92842c0.99637,15.43229 -9.15556,28.9385 -23.51627,31.83573c-1.22381,0.2469 -3.13875,9.05348 -4.41592,9.1409c-1.74558,0.1195 -3.02434,-8.55654 -4.70584,-8.74267c-13.9855,-1.54808 -25.2939,-13.25196 -26.25913,-28.20191z" fill="#f9f9f9" stroke="#0f0a15" stroke-width="1.5" stroke-linecap="butt"/><path d="M221.38708,181.53343c0.38555,5.78476 5.1328,16.00815 5.1328,16.00815c-10.78611,-1.66429 -15.75082,-10.92288 -15.75082,-10.92288c0,0 -3.42137,-9.00599 3.77041,-16.23581c4.28706,-4.30973 16.23466,-7.9883 24.19365,-8.75184c0,0 -18.16358,7.63621 -17.34605,19.90238z" fill="#d1d9dd" stroke="#d1d9dd" stroke-width="1.5" stroke-linecap="round"/><path d="M206.76131,200.38514c0,0 -6.67641,-12.60479 -6.04508,-20.86135c0.15606,-2.04079 3.78567,-1.88509 2.45026,-4.62283c-7.49388,-15.36325 4.7478,-18.32921 4.7478,-18.32921c0,0 -7.2594,-6.74693 20.75723,-15.89175c5.10845,-1.66744 10.3605,2.49571 13.82242,1.56464c14.72217,-3.9594 16.69235,3.78829 16.69235,3.78829c0,0 4.2082,1.59616 5.93314,3.1509c1.54304,1.3908 3.9317,5.74066 3.9317,5.74066c0,0 -4.4526,7.5748 -13.38138,5.5299c-13.44422,-3.07904 -33.52756,6.65485 -40.50208,11.6767c-3.4498,2.48395 3.39966,8.96073 3.31608,19.39623c-0.04854,6.06057 -11.72242,8.85778 -11.72242,8.85778z" fill="#fade23" stroke="#432e05" stroke-width="1.5" stroke-linecap="butt"/><path d="M250.21516,170.1957c0.13839,3.17077 -0.00327,5.75294 -0.31642,5.76743c-0.31315,0.0145 -0.67918,-2.54418 -0.81757,-5.71496c-0.13839,-3.17077 0.00327,-5.75294 0.31641,-5.76743c0.31315,-0.0145 0.67919,2.54417 0.81759,5.71494z" fill="#0f0a15" stroke="#0f0a15" stroke-width="1.5" stroke-linecap="butt"/><path d="M236.85701,242.80288l-0.88289,-31.3649" fill="none" stroke="#130614" stroke-width="1.5" stroke-linecap="round"/><path d="M236.19484,211.41525c0,-1.74479 2.02581,-3.15921 4.52478,-3.15921c2.49898,0 4.52478,1.41443 4.52478,3.15921c0,1.74479 -2.02581,3.15922 -4.52478,3.15922c-2.49898,0 -4.52478,-1.41443 -4.52478,-3.15922z" fill="#c6c6c6" stroke="#0f0a15" stroke-width="1.5" stroke-linecap="butt"/><path d="M181.12486,158.93585c0,0 3.86577,-2.3177 7.1904,-6.39309c4.04328,-4.95632 8.07922,-11.94073 13.44704,-13.26679c3.35301,-0.82833 1.32433,15.22789 1.32433,15.22789c0,0 -9.9205,2.38661 -12.31086,5.01133c-2.51114,2.75734 -9.65092,-0.57934 -9.65092,-0.57934z" fill="#fade23" stroke="#432e05" stroke-width="1.5" stroke-linecap="butt"/><path d="M207.53785,198.23755c-5.58902,-14.70886 -4.44051,-18.1483 -4.44051,-18.1483c0,0 2.88994,-2.14768 2.81907,-3.5506c-0.17565,-3.47745 -3.40396,-8.61464 -3.26366,-10.70779c0.36759,-5.48444 7.52541,-9.74917 7.46018,-9.79196c-0.87561,-0.57437 -1.40748,-3.29462 3.4369,-6.67561c1.57591,-1.09984 8.72618,-4.73568 8.963,-3.54665c0.28958,1.45401 2.05526,1.28157 4.61465,1.05288c1.58737,-0.14184 6.50162,-0.24645 5.54083,-2.59152c-0.8027,-1.95923 0.02891,-1.66724 1.02714,-1.66336c2.12585,0.00825 6.41197,2.08458 7.1518,2.05154c10.83484,-2.12156 13.27855,-1.30668 16.05192,1.65469" fill="none" stroke="#eb9f1f" stroke-width="3" stroke-linecap="round"/><path d="M201.51907,153.4072c0,0 -3.14877,-0.41978 -6.20064,1.2075c-2.15598,1.14959 -4.78561,3.17504 -5.97551,3.63741c-1.77855,0.69111 -5.77434,-0.03405 -5.77434,-0.03405" fill="none" stroke="#eb9f1f" stroke-width="3" stroke-linecap="round"/><path d="M224.12425,212.56297l-0.33108,28.18294" fill="none" stroke="#960537" stroke-width="1.5" stroke-linecap="round"/><path d="M241.45477,236.59499v-10.51991h4.16218v10.51991z" fill="#960537" stroke="#130614" stroke-width="1.5" stroke-linecap="butt"/><path d="M228.21149,236.98463v-10.5199h4.16218v10.5199z" fill="#960537" stroke="#130614" stroke-width="1.5" stroke-linecap="butt"/><path d="M233.27026,291.85316c0.20364,3.82275 -4.23667,4.54563 -12.52594,4.54563c-8.28926,0 -13.51918,-0.03529 -13.51918,-3.86379c0,-3.8285 4.40221,-8.80718 12.69147,-8.80718c8.28926,0 13.02257,1.91038 13.35365,8.12534z" fill="#be5410" stroke="#330c03" stroke-width="1.5" stroke-linecap="butt"/><path d="M221.93951,285.52919c0,0 -17.3552,-5.17918 -10.57087,-16.47345c6.75488,-11.24523 10.57087,16.47345 10.57087,16.47345z" fill="none" stroke="#797979" stroke-width="1.5" stroke-linecap="round"/><path d="M232.78193,271.27174c4.62609,7.70131 -2.08346,13.25753 -6.50457,14.7118c-2.06261,0.67846 -3.2386,0.05703 -3.2386,0.05703c0,0 2.98828,-26.01406 9.74316,-14.76883z" data-paper-data="{&quot;index&quot;:null}" fill="none" stroke="#8e8e8e" stroke-width="1.5" stroke-linecap="round"/><path d="M225.71869,211.68026c0,0 -7.07456,8.80437 -9.6174,12.86641c-3.96015,6.32611 -10.0518,21.53596 -10.0518,21.53596l-8.11152,-1.29638c0,0 3.44076,-26.41891 12.24631,-36.918c4.26345,-5.08343 11.47631,-7.34502 14.14082,-6.75725" fill="#e81231" stroke="#130614" stroke-width="1.5" stroke-linecap="round"/><path d="M208.60465,247.4167c0,3.89125 -3.16226,7.04574 -7.06309,7.04574c-3.90083,0 -7.06308,-3.15449 -7.06308,-7.04574c0,-3.89125 3.16224,-7.04573 7.06308,-7.04573c3.90083,0 7.06309,3.15449 7.06309,7.04573z" fill="#f9f9f9" stroke="#0f0a15" stroke-width="1.5" stroke-linecap="butt"/><path d="M233.58748,171.86243c0.13839,3.17077 -0.00327,5.75294 -0.31642,5.76743c-0.31315,0.0145 -0.67918,-2.54418 -0.81757,-5.71496c-0.13839,-3.17077 0.00327,-5.75294 0.31641,-5.76743c0.31315,-0.0145 0.67919,2.54417 0.81759,5.71494z" fill="#0f0a15" stroke="#0f0a15" stroke-width="1.5" stroke-linecap="butt"/><path d="M241.52118,116.29238c0,0 0.96291,1.81138 1.33965,2.80896c0.42951,1.13726 0.9605,3.14822 0.9605,3.14822" fill="none" stroke="#4c7d3f" stroke-width="1.5" stroke-linecap="round"/><path d="M228.589,135.83488c-7.40237,-2.20662 -9.60873,-11.95277 -6.42575,-21.70106c0.01001,-0.85982 12.79602,-2.86338 13.53442,-2.39018c5.10571,3.27193 9.969,12.72504 6.39535,18.40048c-3.10852,4.93674 -12.22696,6.07144 -13.50403,5.69077z" data-paper-data="{&quot;index&quot;:null}" fill="#7f9e66" stroke="#021f0c" stroke-width="1.5" stroke-linecap="butt"/><path d="M233.12379,124.10205c0,0 -3.4586,-2.89731 -7.14411,-3.66538c-3.81622,-0.79532 -5.21216,-4.35079 -3.7448,-6.21265c0.23671,-0.30035 5.56763,3.15345 9.93344,3.04196c4.08694,-0.10438 6.24713,-3.4965 6.24713,-3.4965c0,0 4.91944,5.78993 2.64866,6.08999c-3.61696,0.47792 -7.9403,4.24259 -7.9403,4.24259z" fill="#6aaf44" stroke="#0b2508" stroke-width="1.5" stroke-linecap="butt"/><path d="M232.55077,129.35249c5.75586,5.70901 -3.71756,11.76574 -3.71756,11.76574l-5.78599,-0.24443c0,0 -4.74884,-11.03961 -0.24879,-13.89282" data-paper-data="{&quot;index&quot;:null}" fill="#7f9e66" stroke="#021f0c" stroke-width="1.5" stroke-linecap="round"/><path d="M230.57147,139.00195c2.22846,2.11282 1.53447,5.49022 1.53447,5.49022c0,0 -2.22884,0.83369 -3.47132,0.96541c-1.67578,0.17765 -5.67814,0.00451 -5.67814,0.00451c0,0 -1.78837,-3.72117 0.39932,-5.59202" fill="#7f9e66" stroke="#021f0c" stroke-width="1.5" stroke-linecap="round"/><path d="M216.49529,95.61125c0.24344,-0.45543 1.7962,-2.83396 3.45635,-6.63117c2.02876,-4.64033 -0.04198,-16.04405 5.08636,-16.74152c1.00424,-0.13659 2.43098,8.47028 2.44026,11.41782c0.01257,3.99196 -2.27077,13.52129 -2.27077,13.52129c0,0 -9.15607,-0.73598 -8.7122,-1.56642z" data-paper-data="{&quot;index&quot;:null}" fill="#182507" stroke="#000201" stroke-width="1.5" stroke-linecap="butt"/><path d="M233.46317,114.16363c-0.13543,-0.08388 1.99049,-0.37473 3.10722,-0.88772c1.37034,-0.62949 4.61066,-2.77087 4.81054,-2.81534c6.19305,-1.37821 11.84905,1.37086 11.76659,2.54608c-0.0817,1.1642 -4.63053,2.41394 -9.90111,2.79996c-3.37399,0.24711 -7.23465,-0.06434 -9.78323,-1.64296z" data-paper-data="{&quot;index&quot;:null}" fill="#def2c2" stroke="#333b32" stroke-width="1.5" stroke-linecap="butt"/><path d="M243.82133,111.19647c0,0 -0.99641,1.38543 -1.75963,1.91327c-0.79236,0.548 -2.91037,1.31652 -2.91037,1.31652" fill="none" stroke="#b4d892" stroke-width="1.5" stroke-linecap="round"/><path d="M233.22932,115.00369c-0.10781,0.01544 -5.33458,2.91139 -11.28286,-0.44315c-5.80204,-3.27205 -8.50182,-5.44267 -6.6877,-14.31588c1.16955,-5.72047 5.78673,-12.13657 14.808,-10.99653c9.02127,1.14003 14.10257,7.04464 14.26707,15.5721c0.16898,8.76109 -7.36856,10.53565 -11.10449,10.18346z" data-paper-data="{&quot;index&quot;:null}" fill="#7f9e66" stroke="#021f0c" stroke-width="1.5" stroke-linecap="butt"/><path d="M234.96924,116.04476c-4.99372,0.83687 -12.49498,-0.40888 -16.12749,-3.92818c-4.45266,-4.31387 -2.83504,-9.1761 -2.6919,-11.35952l8.99149,-4.37817c0,0 15.66166,4.42851 16.39131,2.36209c0.37713,-1.06804 0.82495,0.58061 0.82495,0.58061" fill="none" stroke="#4c7d3f" stroke-width="1.5" stroke-linecap="round"/><path d="M226.17149,95.77678c-2.32098,-1.34662 -10.77999,4.30446 -10.90507,4.25645c-0.7556,-0.29006 1.37419,-9.77336 7.90242,-9.78102c0.75974,-0.00089 2.01549,-2.31979 0.32447,-14.57734c-0.00162,-0.00333 -0.4935,-1.41405 0.46687,-2.64958c1.46836,-1.88908 2.84353,-0.01118 2.84353,-0.01118c0,0 4.31686,18.35489 10.7145,18.53762c3.1243,0.22952 4.16728,4.27129 4.18843,4.71391c0.1855,3.88187 -6.88905,6.82361 -6.88905,6.82361c0,0 -6.24267,-2.94346 -8.64611,-7.31245z" data-paper-data="{&quot;index&quot;:null}" fill="#2a3c10" stroke="#021707" stroke-width="1.5" stroke-linecap="butt"/><path d="M224.65677,123.69326c-2.74948,4.56269 -9.84279,4.93821 -9.84279,4.93821l-3.0729,-4.68639c0,0 2.03441,-6.93837 9.20189,-6.91025" fill="#7f9e66" stroke="#021f0c" stroke-width="1.5" stroke-linecap="round"/><path d="M232.7388,123.03905c0,0 -4.43017,-3.69768 -7.01877,-3.64221c-2.48592,0.05327 -3.43645,-4.53993 -3.43645,-4.53993" fill="none" stroke="#2d6e21" stroke-width="1.5" stroke-linecap="round"/><path d="M213.5012,122.73762c0,0 1.38658,-4.81997 7.31865,-5.16768" fill="none" stroke="#4c7d3f" stroke-width="1.5" stroke-linecap="round"/><path d="M221.65278,117.97576c-5.27284,0.35182 -9.94405,-0.25268 -10.17795,-1.39481c-0.23611,-1.15292 3.68233,-5.28458 9.99954,-4.78185c0.20389,0.01623 5.02009,2.30634 6.46055,2.73914c1.17386,0.35269 3.31845,0.34467 3.19529,0.44665c-2.31775,1.91918 -6.10199,2.76566 -9.47742,2.99088z" data-paper-data="{&quot;index&quot;:null}" fill="#def2c2" stroke="#333b32" stroke-width="1.5" stroke-linecap="butt"/><path d="M237.81701,112.31305l2.01265,-0.6867" data-paper-data="{&quot;index&quot;:null}" fill="none" stroke="#2a3c10" stroke-width="1.5" stroke-linecap="round"/><path d="M230.59626,110.66587l2.3546,1.55386" data-paper-data="{&quot;index&quot;:null}" fill="none" stroke="#2a3c10" stroke-width="1.5" stroke-linecap="round"/><path d="M233.26286,114.77248c-4.42073,0.47051 -10.94991,-1.61525 -12.05805,-3.94509" data-paper-data="{&quot;index&quot;:null}" fill="none" stroke="#021f0c" stroke-width="1.5" stroke-linecap="round"/><path d="M220.90718,104.75671c-3.11988,-5.24984 3.18171,-7.42653 6.46734,-4.45761c2.59865,2.04483 2.33713,6.80151 2.33713,6.80151c0,0 -6.74263,1.12559 -8.80446,-2.34389z" data-paper-data="{&quot;index&quot;:null}" fill="#2a3c10" stroke="#021707" stroke-width="1.5" stroke-linecap="round"/><path d="M228.25891,103.49357c0,2.04762 -1.07468,3.70754 -2.40034,3.70754c-1.32567,0 -2.40034,-1.65991 -2.40034,-3.70754c0,-2.04762 1.07468,-3.70754 2.40034,-3.70754c1.32567,0 2.40034,1.65991 2.40034,3.70754z" fill="#f9f9f9" stroke="#251933" stroke-width="1.5" stroke-linecap="butt"/><path d="M238.71913,107.48956c0,0 0.1684,-4.76082 1.58424,-6.62734c1.81416,-2.74241 4.80049,-0.1532 2.92559,4.8748c-1.23908,3.32287 -4.50981,1.75253 -4.50981,1.75253z" data-paper-data="{&quot;index&quot;:null}" fill="#2a3c10" stroke="#021707" stroke-width="1.5" stroke-linecap="round"/><path d="M243.04182,103.11387l-3.34418,3.92607" data-paper-data="{&quot;index&quot;:null}" fill="none" stroke="#251933" stroke-width="1.5" stroke-linecap="round"/><path d="M227.14842,145.24775l-0.0946,-2.72738" fill="none" stroke="#021f0c" stroke-width="1.5" stroke-linecap="round"/><path d="M228.73142,193.0923c0,0.75315 -0.64233,1.36369 -1.43468,1.36369c-0.79236,0 -1.43468,-0.61054 -1.43468,-1.36369c0,-0.75315 0.64233,-1.36369 1.43468,-1.36369c0.79236,0 1.43468,0.61054 1.43468,1.36369z" fill="#0f0a15" stroke="none" stroke-width="1.5" stroke-linecap="butt"/><path d="M217.18439,126.61015c0,1.93666 -1.56701,3.50664 -3.50001,3.50664c-1.933,0 -3.5,-1.56998 -3.5,-3.50664c0,-1.93666 1.567,-3.50664 3.5,-3.50664c1.933,0 3.50001,1.56998 3.50001,3.50664z" fill="#7f9e66" stroke="#021f0c" stroke-width="1.5" stroke-linecap="butt"/><path d="M223.71027,144.52348c-1.60098,-2.08346 0.09354,-4.79623 0.03181,-4.94254c-1.0918,-2.58827 -2.99207,-9.38539 -0.19735,-12.01836" fill="none" stroke="#4c7d3f" stroke-width="1.5" stroke-linecap="round"/><path d="M212.73446,116.2206c1.37125,-1.53989 4.08782,-3.64688 8.78239,-3.22979" fill="none" stroke="#b4d892" stroke-width="1.5" stroke-linecap="round"/><path d="M226.85181,103.62141l-0.99325,2.47169" fill="none" stroke="#e81231" stroke-width="1.5" stroke-linecap="round"/><path d="M200.81366,239.49983c0,0 2.4764,-19.57403 9.60908,-28.53475c4.83204,-6.07043 12.21291,-8.72906 12.21291,-8.72906" fill="none" stroke="#960537" stroke-width="3" stroke-linecap="round"/></g></g></svg>