<svg version="1.1" xmlns="http://www.w3.org/2000/svg" xmlns:xlink="http://www.w3.org/1999/xlink" width="137.37665" height="240.74151" viewBox="0,0,137.37665,240.74151"><g transform="translate(-177.66503,-55.59754)"><g data-paper-data="{&quot;isPaintingLayer&quot;:true}" fill-rule="nonzero" stroke-linejoin="miter" stroke-miterlimit="10" stroke-dasharray="" stroke-dashoffset="0" style="mix-blend-mode: normal"><path d="M258.7392,249.03298c20.00539,7.23063 4.14733,32.11002 4.14733,32.11002l-14.04134,5.80901c0,0 -23.49636,-21.03037 -15.93714,-32.79178" data-paper-data="{&quot;index&quot;:null}" fill="#4c7d3f" stroke="#021f0c" stroke-width="1.5" stroke-linecap="round"/><path d="M264.18257,278.6384c5.8473,5.54387 5.17803,16.59342 3.16786,16.93904c-4.39711,0.46614 -23.14898,0.01184 -23.14898,0.01184c0,0 -4.69254,-9.76405 1.04778,-14.67301" data-paper-data="{&quot;index&quot;:null}" fill="#4c7d3f" stroke="#021f0c" stroke-width="1.5" stroke-linecap="round"/><g stroke-width="1.5"><path d="M280.96214,111.94834l1.7955,13.72127c0,0 27.41501,-4.49623 31.14466,23.84849c3.96787,30.15522 -23.6977,33.06102 -23.6977,33.06102l1.56003,11.92176l-16.165,2.2429c0,0 -5.9381,-23.2833 -7.75534,-37.17078c-1.78292,-13.62506 -3.04709,-45.38178 -3.04709,-45.38178z" fill="#2493fa" stroke="#0a0b14" stroke-linecap="butt"/><path d="M265.69034,115.2184l13.86032,-1.87767l1.79551,13.72127c0,0 30.22564,-4.72488 31.23218,24.0077c0.0023,0.06604 -4.0739,-11.39511 -22.53944,-14.99255c-11.87416,-2.31331 -22.45883,4.5248 -22.50972,4.52605c-0.85025,-13.02298 -1.83887,-25.38481 -1.83887,-25.38481z" fill="#0d67bc" stroke="none" stroke-linecap="butt"/><path d="M293.51177,165.72214l-16.2955,-8.01129l15.06262,-12.1751l10.77349,9.95009z" fill="#1be4fa" stroke="#0a0b14" stroke-linecap="round"/></g><path d="M217.01268,198.58007c1.35968,-1.05691 3.21922,-0.52562 3.21922,-0.52562c0,0 0.99519,2.96247 1.23531,4.25587c0.17802,0.95896 0.07573,2.80584 0.07573,2.80584c0,0 -2.52581,1.33917 -4.39405,0.59163" data-paper-data="{&quot;index&quot;:null}" fill="#4c7d3f" stroke="#021f0c" stroke-width="1.5" stroke-linecap="round"/><path d="M210.96886,196.63959c3.19372,-1.24706 6.79882,1.05617 7.59426,4.51566c0.79545,3.4595 -1.30658,5.63342 -4.47142,6.95484c-3.29434,1.3755 -5.57335,0.2272 -6.7846,-3.10549c-1.32141,-3.63586 0.43769,-7.10608 3.66175,-8.365z" data-paper-data="{&quot;index&quot;:null}" fill="#4c7d3f" stroke="#021f0c" stroke-width="1.5" stroke-linecap="butt"/><path d="M204.7624,192.13214c5.02018,-5.39788 12.64326,-2.96187 12.64326,-2.96187l1.16611,5.5323c0,0 -5.16907,4.97312 -10.27474,3.82377" data-paper-data="{&quot;index&quot;:null}" fill="#7f9e66" stroke="#021f0c" stroke-width="1.5" stroke-linecap="round"/><path d="M216.40781,189.19267c1.71021,-0.91484 3.80916,-0.26311 4.68814,1.45567c0.87899,1.71877 0.20514,3.85373 -1.50507,4.76856c-1.71021,0.91484 -3.80916,0.26311 -4.68814,-1.45567c-0.87899,-1.71877 -0.20514,-3.85373 1.50507,-4.76856z" data-paper-data="{&quot;index&quot;:null}" fill="#7f9e66" stroke="#021f0c" stroke-width="1.5" stroke-linecap="butt"/><path d="M209.22372,191.55486c0,0 1.20749,1.6584 1.72045,2.59326c0.5848,1.06576 1.39264,2.98234 1.39264,2.98234" fill="none" stroke="#4c7d3f" stroke-width="1.5" stroke-linecap="round"/><path d="M210.78627,186.18669c0,0 -0.79221,1.5115 -1.47383,2.14119c-0.70765,0.65374 -2.69691,1.71177 -2.69691,1.71177" fill="none" stroke="#b4d892" stroke-width="1.5" stroke-linecap="round"/><path d="M204.99795,188.13452l1.89642,-0.96224" data-paper-data="{&quot;index&quot;:null}" fill="none" stroke="#2a3c10" stroke-width="1.5" stroke-linecap="round"/><path d="M205.21451,183.23216c0,0 -0.50112,-4.73736 0.63889,-6.78404c1.41151,-2.96979 4.73154,-0.82511 3.58051,4.41619c-0.76069,3.46383 -4.21937,2.36784 -4.21937,2.36784z" data-paper-data="{&quot;index&quot;:null}" fill="#2a3c10" stroke="#021707" stroke-width="1.5" stroke-linecap="round"/><path d="M206.12027,182.64973l2.76035,-4.35638" data-paper-data="{&quot;index&quot;:null}" fill="none" stroke="#251933" stroke-width="1.5" stroke-linecap="round"/><path d="M198.67705,283.65331c-10.96226,-0.2031 -21.03419,-22.0334 -20.2153,-21.88428c17.44786,3.1771 22.46105,0.38596 26.19435,-16.21841c0.12571,-0.55911 20.10285,9.69647 20.40413,17.21474c2.64311,14.89977 -19.08459,21.02319 -26.38318,20.88797z" data-paper-data="{&quot;index&quot;:null}" fill="#7f9e66" stroke="#021f0c" stroke-width="1.5" stroke-linecap="butt"/><path d="M254.69034,218.82863c-2.30154,-19.20486 15.49948,-30.34366 15.49948,-30.34366l13.05723,7.04227c0,0 3.23924,23.98739 -18.22244,35.8562" data-paper-data="{&quot;index&quot;:null}" fill="#7f9e66" stroke="#021f0c" stroke-width="1.5" stroke-linecap="round"/><path d="M268.54323,190.52151c1.06668,-4.97609 5.92997,-8.07531 10.86246,-6.92228c4.9325,1.15297 8.0663,6.12163 6.99959,11.09771c-1.06668,4.97609 -5.92995,8.0753 -10.86245,6.92227c-4.9325,-1.15297 -8.06632,-6.12162 -6.99961,-11.09771z" data-paper-data="{&quot;index&quot;:null}" fill="#7f9e66" stroke="#021f0c" stroke-width="1.5" stroke-linecap="butt"/><path d="M227.48073,270.32826c-19.42322,-5.78999 -25.21254,-31.36311 -16.86065,-56.94183c0.02626,-2.2561 33.57573,-7.51328 35.51323,-6.27164c13.39697,8.58528 26.15785,33.38948 16.78088,48.28138c-8.15651,12.95361 -32.08255,15.93097 -35.43348,14.93212z" data-paper-data="{&quot;index&quot;:null}" fill="#7f9e66" stroke="#021f0c" stroke-width="1.5" stroke-linecap="butt"/><path d="M240.47725,258.13624c11.52313,17.88058 -16.17325,28.04781 -16.17325,28.04781l-14.68775,-3.89533c0,0 -5.93106,-30.9706 7.21176,-35.73911" data-paper-data="{&quot;index&quot;:null}" fill="#7f9e66" stroke="#021f0c" stroke-width="1.5" stroke-linecap="round"/><path d="M228.68596,280.91627c5.74032,4.90896 1.04778,14.67301 1.04778,14.67301c0,0 -18.75187,0.4543 -23.14898,-0.01184c-2.01017,-0.34562 -2.67944,-11.39517 3.16786,-16.93904" data-paper-data="{&quot;index&quot;:null}" fill="#7f9e66" stroke="#021f0c" stroke-width="1.5" stroke-linecap="round"/><path d="M218.98264,287.87044l-0.24822,7.15643" data-paper-data="{&quot;index&quot;:null}" fill="none" stroke="#021f0c" stroke-width="1.5" stroke-linecap="round"/><path d="M211.20068,276.60418c-0.5202,-6.30123 -2.71217,-23 5.93653,-28.16766" fill="none" stroke="#4c7d3f" stroke-width="3.5" stroke-linecap="round"/><path d="M239.37965,239.54226c0,0 -9.07509,-7.60231 -18.74557,-9.61766c-10.01345,-2.08685 -13.67629,-11.41612 -9.82605,-16.30149c0.62111,-0.78809 14.60901,8.2744 26.06455,7.98186c10.7238,-0.27389 16.39197,-9.17453 16.39197,-9.17453c0,0 12.90821,15.1923 6.94987,15.97964c-9.49061,1.25403 -20.83471,11.13222 -20.83471,11.13222z" fill="#6aaf44" stroke="#0b2508" stroke-width="1.5" stroke-linecap="butt"/><path d="M193.66882,169.25877c0.46482,-1.2728 3.62334,-8.02372 6.53866,-18.49984c3.56262,-12.80221 -6.01465,-41.66656 7.05191,-45.36623c2.55871,-0.7245 9.43341,21.11075 10.54247,28.76496c1.50204,10.36638 -0.9224,35.96379 -0.9224,35.96379c0,0 -24.05812,1.45817 -23.21063,-0.86268z" data-paper-data="{&quot;index&quot;:null}" fill="#182507" stroke="#000201" stroke-width="1.5" stroke-linecap="butt"/><path d="M244.57978,211.21172c-0.38272,-0.16807 5.03331,-1.70621 7.74572,-3.44999c3.3284,-2.1398 10.95845,-8.89577 11.46137,-9.08488c15.58209,-5.86013 31.28811,-0.8 31.50646,2.28354c0.21627,3.05463 -11.14146,7.97579 -24.69219,10.91868c-8.67457,1.88389 -18.8191,2.49581 -26.02131,-0.6673z" data-paper-data="{&quot;index&quot;:null}" fill="#def2c2" stroke="#333b32" stroke-width="1.5" stroke-linecap="butt"/><path d="M270.39784,199.69042c0,0 -2.07868,3.96608 -3.86721,5.61832c-1.85682,1.71535 -7.07647,4.49155 -7.07647,4.49155" fill="none" stroke="#b4d892" stroke-width="1.5" stroke-linecap="round"/><path d="M232.3195,213.94203l17.75,-2.25c0,0 -2.42756,1.56427 -4.89294,3.49938c-2.03735,1.59915 -3.62491,3.68937 -8.10706,3.25062c-6.17569,-0.60452 -4.75,-4.5 -4.75,-4.5z" fill="#251933" stroke="#251933" stroke-width="1.5" stroke-linecap="butt"/><path d="M244.28146,213.48025c-0.10783,0.03135 -9.35563,-0.24067 -12.75406,1.14612c-5.24962,2.1422 -6.59137,5.81683 -16.72162,1.85565c-16.27795,-6.36506 -24.09087,-11.01051 -22.64394,-34.73062c0.93283,-15.29212 10.56647,-33.6605 34.42313,-34.01931c23.85665,-0.35884 39.23113,13.11084 42.79734,35.20439c3.66384,22.69888 -15.26529,30.08359 -25.10077,30.54375z" data-paper-data="{&quot;index&quot;:null}" fill="#7f9e66" stroke="#021f0c" stroke-width="1.5" stroke-linecap="butt"/><path d="M218.86826,166.12713c-6.52552,-2.64416 -26.42172,15.15084 -26.76434,15.07215c-2.06981,-0.47545 -0.02732,-25.89675 16.93003,-28.3196c1.97345,-0.28196 4.38231,-6.76863 -4.52275,-37.99097c-0.00544,-0.00805 -1.8026,-3.49202 0.23764,-7.05539c3.11942,-5.44826 7.38331,-1.07572 7.38331,-1.07572c0,0 17.97127,46.09654 34.65943,44.21639c8.20133,-0.55373 12.39868,9.56278 12.61655,10.70491c1.91079,10.01671 -15.38589,20.26332 -15.38589,20.26332c0,0 -17.30173,-5.3492 -25.15398,-15.81504z" data-paper-data="{&quot;index&quot;:null}" fill="#2a3c10" stroke="#021707" stroke-width="1.5" stroke-linecap="butt"/><path d="M216.62824,239.30647c0.2517,13.97556 -14.99062,24.70213 -14.99062,24.70213l-13.36537,-6.13095c0,0 -5.90405,-23.00869 19.56602,-32.94155" fill="#7f9e66" stroke="#021f0c" stroke-width="1.5" stroke-linecap="round"/><path d="M190.48648,255.28466c0,0 -1.40513,-8.25733 3.32703,-16.19826c1.55092,-2.60256 3.76107,-5.17113 6.89596,-7.4039" fill="none" stroke="#4c7d3f" stroke-width="3.5" stroke-linecap="round"/><path d="M203.42718,257.50991c2.70076,4.30453 1.40723,9.97932 -2.88917,12.67497c-4.29639,2.69565 -9.96869,1.39137 -12.66945,-2.91316c-2.70076,-4.30453 -1.40725,-9.97931 2.88914,-12.67495c4.29639,-2.69565 9.96873,-1.39139 12.66948,2.91314z" fill="#7f9e66" stroke="#021f0c" stroke-width="1.5" stroke-linecap="butt"/><path d="M240.11947,237.50304c0,0 -12.52744,-8.20532 -19.66668,-10.05687c-10.04227,-2.60445 -8.76696,-11.66241 -8.76696,-11.66241" fill="none" stroke="#2d6e21" stroke-width="3.5" stroke-linecap="round"/><path d="M215.2999,225.46277c-13.56919,2.85488 -25.92739,3.00379 -26.95545,0.12267c-1.03778,-2.90835 7.62142,-15.08462 24.21841,-16.10381c0.53567,-0.03288 13.89099,4.144 17.79259,4.73818c3.17948,0.48419 8.7481,-0.32603 8.46568,-0.01576c-5.31503,5.83911 -14.83481,9.43117 -23.52118,11.25873z" data-paper-data="{&quot;index&quot;:null}" fill="#def2c2" stroke="#333b32" stroke-width="1.5" stroke-linecap="butt"/><path d="M260.18581,202.27652l-4.97604,2.52486" data-paper-data="{&quot;index&quot;:null}" fill="none" stroke="#2a3c10" stroke-width="1.5" stroke-linecap="round"/><path d="M235.84416,203.1799l6.68914,3.17019" data-paper-data="{&quot;index&quot;:null}" fill="none" stroke="#2a3c10" stroke-width="1.5" stroke-linecap="round"/><path d="M244.28349,212.86723c-11.31175,2.84958 -29.04212,-0.16586 -32.77862,-5.81084" data-paper-data="{&quot;index&quot;:null}" fill="none" stroke="#021f0c" stroke-width="1.5" stroke-linecap="round"/><path d="M208.4971,191.39448c-10.03776,-12.49057 5.53239,-20.46506 15.1612,-13.96129c7.5039,4.35589 8.57534,16.80989 8.57534,16.80989c0,0 -17.10287,5.40611 -23.73651,-2.84857z" data-paper-data="{&quot;index&quot;:null}" fill="#2a3c10" stroke="#021707" stroke-width="1.5" stroke-linecap="round"/><path d="M227.13176,185.4068c0.7537,5.31966 -1.4273,10.02767 -4.87132,10.51563c-3.44405,0.48796 -6.847,-3.42888 -7.60071,-8.74856c-0.7537,-5.31966 1.4273,-10.02766 4.87133,-10.51561c3.44405,-0.48796 6.847,3.42888 7.60071,8.74857z" fill="#f9f9f9" stroke="#251933" stroke-width="1.5" stroke-linecap="butt"/><path d="M255.778,191.93801c0,0 -1.31489,-12.43046 1.67639,-17.80078c3.7037,-7.79247 12.41515,-2.165 9.39495,11.58773c-1.996,9.08882 -11.07129,6.21302 -11.07129,6.21302z" data-paper-data="{&quot;index&quot;:null}" fill="#2a3c10" stroke="#021707" stroke-width="1.5" stroke-linecap="round"/><path d="M225.125,184.83959c0,2.62335 -0.95139,4.75 -2.125,4.75c-1.17361,0 -2.125,-2.12665 -2.125,-4.75c0,-2.62335 0.95139,-4.75 2.125,-4.75c1.17361,0 2.125,2.12665 2.125,4.75z" fill="#e81231" stroke="#e81231" stroke-width="1.5" stroke-linecap="butt"/><path d="M256.58975,181.52099c0.39957,-4.63226 2.20362,-8.04295 4.02947,-7.61804c1.82583,0.4249 2.98208,4.52451 2.58251,9.15675c-0.39957,4.63225 -2.20363,8.04294 -4.02947,7.61803c-1.82583,-0.4249 -2.98207,-4.52452 -2.5825,-9.15676z" data-paper-data="{&quot;index&quot;:null}" fill="#f9f9f9" stroke="#251933" stroke-width="1.5" stroke-linecap="butt"/><path d="M258.41649,176.33959c0.55228,0 1,1.84682 1,4.125c0,2.27818 -0.44772,4.125 -1,4.125c-0.55228,0 -1,-1.84682 -1,-4.125c0,-2.27818 0.44772,-4.125 1,-4.125z" data-paper-data="{&quot;index&quot;:null}" fill="#e81231" stroke="#e81231" stroke-width="1.5" stroke-linecap="butt"/><g><g stroke-width="1" stroke-linecap="round"><path d="M228.53041,97.94773c0,0 6.77628,1.12049 9.68703,1.25619c4.53312,0.21135 14.40661,-1.09372 14.40661,-1.09372l1.73891,4.67414c0,0 -15.01512,6.04176 -23.20614,4.51037c-3.96591,-0.74146 -7.31974,-3.88183 -7.80521,-5.46541" data-paper-data="{&quot;index&quot;:null}" fill="#960537" stroke="#130614"/><path d="M250.46828,103.11566c0,0 -14.33606,3.71782 -18.17009,2.90504c-4.50188,-0.95435 -7.33561,-3.58092 -7.33561,-3.58092" fill="none" stroke="#e81231"/></g><path d="M259.8267,101.30531c0,2.41227 -1.96035,4.3678 -4.37856,4.3678c-2.41821,0 -4.37855,-1.95553 -4.37855,-4.3678c0,-2.41227 1.96034,-4.36779 4.37855,-4.36779c2.41821,0 4.37856,1.95553 4.37856,4.36779z" fill="#d1d9dd" stroke="#0f0a15" stroke-width="1" stroke-linecap="butt"/><g data-paper-data="{&quot;index&quot;:null}" stroke-width="1"><path d="M246.496,136.60578l-25.54414,-15.91616l4.62552,-7.95065l25.54414,15.91617z" fill="#4236fb" stroke="#170124" stroke-linecap="butt"/><path d="M224.83004,121.69505l19.89902,12.72584" fill="none" stroke="#3611be" stroke-linecap="round"/></g><path d="M248.33753,130.08932c3.68998,-3.57633 7.79764,-3.25935 9.44941,-1.55509c1.65177,1.70426 -0.6611,3.97636 -4.35109,7.5527c-3.68998,3.57634 -5.97847,5.17029 -7.53711,3.38072c-2.53401,-2.90944 -1.25119,-5.80199 2.43878,-9.37832z" data-paper-data="{&quot;index&quot;:null}" fill="#be5410" stroke="#330c03" stroke-width="1" stroke-linecap="butt"/><path d="M247.9455,132.46586c0,0 -0.25538,0.78401 -1.46627,1.37188c-2.59549,1.26008 -7.97943,1.68149 -9.2428,-3.74264c-1.84472,-7.92016 10.70906,2.37076 10.70906,2.37076z" data-paper-data="{&quot;index&quot;:null}" fill="none" stroke="#8e8e8e" stroke-width="1" stroke-linecap="round"/><path d="M245.81252,119.87007c7.89287,2.10062 2.4017,11.89389 2.4017,11.89389c0,0 -10.2603,-13.98538 -2.4017,-11.89389z" data-paper-data="{&quot;index&quot;:null}" fill="none" stroke="#797979" stroke-width="1" stroke-linecap="round"/><g stroke-width="1"><path d="M216.8658,148.29377l-3.40344,-29.96162l9.13728,-0.8654l3.55841,32.28633z" fill="#4236fb" stroke="#170124" stroke-linecap="butt"/><path d="M214.72735,119.78857l2.75564,25.80325" fill="none" stroke="#3611be" stroke-linecap="round"/></g><path d="M222.84532,93.82154c0,4.61513 -4.70491,8.83703 -11.77253,9.14691c-5.15123,0.22585 -8.61716,-2.0597 -10.89398,-6.43671c-2.63564,-5.06682 2.75568,-11.06663 9.83972,-11.06663c7.08404,0 12.82679,3.74131 12.82679,8.35644z" fill="#960537" stroke="#0f0314" stroke-width="1" stroke-linecap="butt"/><path d="M217.36236,121.04606c0,0 -4.41879,-0.05363 -4.28788,-2.88845c0.22352,-4.84087 0.13676,-20.43262 0.13676,-20.43262l-0.09059,-7.2535l15.8527,-1.40897c0,0 3.15759,21.03705 1.95225,26.95945c-1.14851,5.64313 -6.19396,5.165 -6.19396,5.165z" fill="#e81231" stroke="#130614" stroke-width="1" stroke-linecap="butt"/><path d="M235.45741,85.01062c-1.4786,-3.34283 -2.24359,-18.36479 -2.24359,-18.36479l6.11638,0.06542c0,0 0.11168,10.19591 3.61655,13.25745c1.75267,1.53097 0.45177,9.70279 0.45177,9.70279c0,0 -6.46253,-1.31803 -7.94111,-4.66087z" fill="#eb9f1f" stroke="#432e05" stroke-width="1" stroke-linecap="butt"/><path d="M202.58617,77.31342c-0.67031,-10.38207 6.95969,-19.35794 17.04208,-20.04818c0.07734,-0.0053 0.15461,-0.01009 0.23179,-0.01438c1.21517,-0.06757 2.03076,1.6146 3.19282,1.78443c2.47184,0.36126 6.21919,-0.14122 8.33063,0.94485c5.05138,2.59831 7.30224,8.45253 7.71425,14.83372c0.61767,9.56679 -5.67571,17.93957 -14.57821,19.73562c-0.75867,0.15306 -1.94577,5.61244 -2.73752,5.66664c-1.08212,0.07408 -1.87485,-5.30437 -2.91725,-5.41976c-8.6699,-0.95968 -15.68021,-8.21516 -16.27857,-17.48294z" fill="#f9f9f9" stroke="#0f0a15" stroke-width="1" stroke-linecap="butt"/><path d="M212.57105,82.70709c0.23901,3.58609 3.18193,9.92378 3.18193,9.92378c-6.68653,-1.03172 -9.76425,-6.77132 -9.76425,-6.77132c0,0 -2.12097,-5.58299 2.33736,-10.06491c2.65763,-2.67169 10.0642,-4.95211 14.99814,-5.42544c0,0 -11.25998,4.73384 -10.75317,12.33789z" fill="#d1d9dd" stroke="#d1d9dd" stroke-width="1" stroke-linecap="round"/><path d="M203.50423,94.39366c0,0 -4.13885,-7.81397 -3.74747,-12.93238c0.09674,-1.26513 2.34681,-1.16861 1.51897,-2.86579c-4.64561,-9.52399 2.94326,-11.36265 2.94326,-11.36265c0,0 -4.50026,-4.18256 12.86783,-9.85162c3.16683,-1.03368 6.42269,1.54714 8.5688,0.96995c9.12658,-2.45452 10.34793,2.34844 10.34793,2.34844c0,0 2.60875,0.98949 3.67807,1.95331c0.95656,0.86218 2.43734,3.55875 2.43734,3.55875c0,0 -2.76026,4.69577 -8.29539,3.42809c-8.33435,-1.90876 -20.78442,4.12548 -25.10807,7.23863c-2.1386,1.53985 2.10752,5.55494 2.0557,12.02412c-0.03009,3.75707 -7.26697,5.49112 -7.26697,5.49112z" fill="#fade23" stroke="#432e05" stroke-width="1" stroke-linecap="butt"/><path d="M221.61385,101.24553l0.54732,19.44374" fill="none" stroke="#130614" stroke-width="1" stroke-linecap="round"/><path d="M221.75068,101.23145c0,-1.08163 1.25584,-1.95846 2.80501,-1.95846c1.54917,0 2.805,0.87683 2.805,1.95846c0,1.08163 -1.25584,1.95846 -2.805,1.95846c-1.54917,0 -2.80501,-0.87683 -2.80501,-1.95846z" fill="#c6c6c6" stroke="#0f0a15" stroke-width="1" stroke-linecap="butt"/><path d="M203.98562,93.06232c-3.46475,-9.11832 -2.75276,-11.25051 -2.75276,-11.25051c0,0 1.79153,-1.33139 1.74759,-2.20109c-0.10889,-2.15574 -2.11018,-5.3404 -2.0232,-6.63798c0.22788,-3.39992 4.66515,-6.04371 4.62472,-6.07023c-0.54281,-0.35607 -0.87253,-2.04241 2.1306,-4.13835c0.73681,-0.51423 5.71133,-2.66358 5.71133,-2.66358c0,0 5.07367,-1.83241 5.6925,-1.83c1.31786,0.00512 5.05977,1.60223 5.51841,1.58175c6.71674,-1.3152 8.23165,-0.81003 9.95092,1.02578" fill="none" stroke="#eb9f1f" stroke-width="1.5" stroke-linecap="round"/><path d="M225.01142,116.84088v-6.5215h2.58022v6.5215z" fill="#960537" stroke="#130614" stroke-width="1" stroke-linecap="butt"/><path d="M216.80164,117.08243v-6.5215h2.58022v6.5215z" fill="#960537" stroke="#130614" stroke-width="1" stroke-linecap="butt"/><path d="M226.44684,151.09656c0.12624,2.3698 -2.6264,2.81793 -7.76508,2.81793c-5.13868,0 -8.38082,-0.02188 -8.38082,-2.39524c0,-2.37337 2.72903,-5.45975 7.86771,-5.45975c5.13868,0 8.07296,1.18429 8.2782,5.03707z" fill="#be5410" stroke="#330c03" stroke-width="1" stroke-linecap="butt"/><path d="M219.42267,147.17619c0,0 -10.75885,-3.21068 -6.5531,-10.21223c4.18749,-6.97115 6.5531,10.21223 6.5531,10.21223z" fill="none" stroke="#797979" stroke-width="1" stroke-linecap="round"/><path d="M226.14411,138.3377c2.86781,4.7742 -1.29158,8.21862 -4.03232,9.12015c-1.27865,0.42059 -2.00767,0.03535 -2.00767,0.03535c0,0 1.8525,-16.12665 6.03999,-9.1555z" data-paper-data="{&quot;index&quot;:null}" fill="none" stroke="#8e8e8e" stroke-width="1" stroke-linecap="round"/><path d="M214.26787,101.94294l-0.20525,17.47119" fill="none" stroke="#960537" stroke-width="1" stroke-linecap="round"/><path d="M214.3094,103.77197c-1.25087,0.69048 -2.70069,1.23924 -4.22,1.44342c-8.419,1.13143 -23.39823,-5.82551 -23.39823,-5.82551l2.01033,-4.6787c0,0 9.98674,1.852 14.6134,1.87508c2.97081,0.01481 10.91809,-1.63672 10.91809,-1.63672" data-paper-data="{&quot;index&quot;:null}" fill="#e81231" stroke="#130614" stroke-width="1" stroke-linecap="round"/><path d="M190.1987,98.96619c-1.29334,2.0433 -3.99412,2.65382 -6.03239,1.36367c-2.03827,-1.29015 -2.64216,-3.99244 -1.34884,-6.03572c1.29333,-2.04329 3.99412,-2.65382 6.0324,-1.36368c2.03826,1.29015 2.64217,3.99244 1.34883,6.03573z" data-paper-data="{&quot;index&quot;:null}" fill="#f9f9f9" stroke="#0f0a15" stroke-width="1" stroke-linecap="butt"/><path d="M213.89113,102.49378c-1.46653,0.68958 -3.32133,1.35059 -5.34482,1.56996c-7.05855,0.76521 -17.84433,-4.13913 -17.84433,-4.13913" data-paper-data="{&quot;index&quot;:null}" fill="none" stroke="#960537" stroke-width="1" stroke-linecap="round"/><g data-paper-data="{&quot;index&quot;:null}" stroke="#0f0a15" stroke-width="1"><path d="M236.44737,78.71802l-7.12909,0.61992c0,0 1.46794,-0.23486 1.23985,-1.85976" fill="none" stroke-linecap="round"/><path d="M231.87122,79.82249l0.63411,-0.03021c0,0 -0.17494,0.93285 -0.36907,0.92538c-0.19413,-0.00747 -0.26504,-0.89517 -0.26504,-0.89517z" fill="#0f0a15" stroke-linecap="butt"/><path d="M236.04718,83.81391c-6.53722,0.52772 -6.06144,-1.65313 -6.06144,-1.65313c0,0 4.73539,-2.06941 7.02576,-0.27551" fill="none" stroke-linecap="round"/><path d="M235.22062,73.61965c0,0 -3.70057,0.60412 -4.72995,0.21524c-1.03697,-0.39174 -0.71157,-2.69492 -0.71157,-2.69492" fill="none" stroke-linecap="round"/></g><g data-paper-data="{&quot;index&quot;:null}" stroke="#0f0a15" stroke-width="1"><path d="M223.49379,78.73523c-0.22809,1.6249 1.23984,1.85976 1.23984,1.85976l-7.12909,-0.61992" fill="none" stroke-linecap="round"/><path d="M219.84925,81.28591c-0.19413,0.00747 -0.36907,-0.92538 -0.36907,-0.92538l0.63411,0.03021c0,0 -0.07091,0.8877 -0.26504,0.89517z" fill="#0f0a15" stroke-linecap="butt"/><path d="M217.24706,82.5224c2.29037,-1.7939 7.02576,0.27553 7.02576,0.27553c0,0 0.47577,2.18083 -6.06144,1.65312" fill="none" stroke-linecap="round"/><path d="M223.44626,74.60119c0,0 0.32539,2.30318 -0.71158,2.69492c-1.02938,0.38887 -4.72995,-0.21524 -4.72995,-0.21524" fill="none" stroke-linecap="round"/></g><g data-paper-data="{&quot;index&quot;:null}" fill="none" stroke="#0f0a15" stroke-width="1" stroke-linecap="round"><path d="M231.21869,87.04439l1.72199,0.49594c0,0 -5.01738,3.17676 -11.04836,2.87918c-6.03098,-0.29758 -6.5436,-3.16848 -6.5436,-3.16848"/><path d="M215.27984,85.62718c0,0 0.5834,0.77942 0.06439,1.67512c-0.46683,0.80564 -1.57976,0.73568 -1.57976,0.73568"/></g><path d="M187.61167,68.28511c0,0 2.39648,-1.43679 4.45748,-3.96321c2.50651,-3.07252 5.00848,-7.40231 8.3361,-8.22436c2.0786,-0.5135 0.82098,9.44008 0.82098,9.44008c0,0 -6.14992,1.4795 -7.63175,3.10663c-1.5567,1.70933 -5.9828,-0.35914 -5.9828,-0.35914z" fill="#fade23" stroke="#432e05" stroke-width="1" stroke-linecap="butt"/><path d="M200.25446,65.27108c0,0 -1.95199,-0.26023 -3.84391,0.74856c-1.33653,0.71265 -2.96669,1.96827 -3.70434,2.2549c-1.10256,0.42843 -3.57963,-0.02111 -3.57963,-0.02111" fill="none" stroke="#eb9f1f" stroke-width="1" stroke-linecap="round"/></g></g></g></svg>