<svg version="1.1" xmlns="http://www.w3.org/2000/svg" xmlns:xlink="http://www.w3.org/1999/xlink" width="234" height="171"><g transform="translate(-149.5,-84.5)"><g data-paper-data="{&quot;isPaintingLayer&quot;:true}" fill="none" fill-rule="nonzero" stroke="none" stroke-width="none" stroke-linecap="butt" stroke-linejoin="miter" stroke-miterlimit="10" stroke-dasharray="" stroke-dashoffset="0" font-family="none" font-weight="none" font-size="none" text-anchor="none" style="mix-blend-mode: normal"><path d="M219,140c0,-26.50967 21.49033,-48 48,-48c26.50967,0 48,21.49033 48,48c0,26.50967 -21.49033,48 -48,48c-26.50967,0 -48,-21.49033 -48,-48z" data-paper-data="{&quot;origPos&quot;:null}" fill="none" stroke="#005708" stroke-width="15"/><path d="M152,253v-116h229v116z" data-paper-data="{&quot;origPos&quot;:null}" fill="#bd0000" stroke="#570000" stroke-width="5"/><path d="M164,186v-35h35v35z" data-paper-data="{&quot;origPos&quot;:null}" fill="#8affff" stroke="#005708" stroke-width="5"/><path d="M332,186v-35h35v35z" data-paper-data="{&quot;origPos&quot;:null}" fill="#8affff" stroke="#005708" stroke-width="5"/><path d="M220,195v-26h92v26z" data-paper-data="{&quot;origPos&quot;:null}" fill="#8fff8a" stroke="#00c213" stroke-width="5"/><path d="M182,243v-31h31v31z" data-paper-data="{&quot;origPos&quot;:null}" fill="#dd8aff" stroke="#365700" stroke-width="5"/><path d="M311,245v-31h31v31z" data-paper-data="{&quot;origPos&quot;:null}" fill="#dd8aff" stroke="#365700" stroke-width="5"/></g></g></svg>