<svg version="1.1" xmlns="http://www.w3.org/2000/svg" xmlns:xlink="http://www.w3.org/1999/xlink" width="52.36775" height="46.89673" viewBox="0,0,52.36775,46.89673"><g transform="translate(-214.4389,-155.34811)"><g data-paper-data="{&quot;isPaintingLayer&quot;:true}" fill-rule="nonzero" stroke-width="1" stroke-linejoin="miter" stroke-miterlimit="10" stroke-dasharray="" stroke-dashoffset="0" style="mix-blend-mode: normal"><path d="M239.04167,201.74166c-6.73976,0.07846 -4.5,-16.41667 -4.5,-16.41667l11.91667,0.58333c0,0 3.52633,1.91509 4.57757,6.493c1.2159,5.29497 6.60539,7.83364 8.25613,7.91064c0.80213,0.03741 0.58297,1.42969 0.58297,1.42969c0,0 -12.70341,-0.09464 -20.83333,0z" fill="#f51130" stroke="#3f0b24" stroke-linecap="butt"/><path d="M238.79167,201.49167c-6.73976,0.07845 -4.25,-16.16667 -4.25,-16.16667l11.91667,0.58334c0,0 0.44299,5.08176 1.49423,9.65967c1.2159,5.29497 11.93275,5.75665 11.92243,6.17367c-0.00183,0.07403 -12.95341,-0.34464 -21.08334,-0.25z" fill="#fef9ff" stroke="#241f26" stroke-linecap="butt"/><g data-paper-data="{&quot;index&quot;:null}" stroke-linecap="butt"><path d="M248.89336,180.00833c1.94414,-2.85222 6.70736,-2.95179 10.24328,-0.38004c4.41409,3.21045 4.78397,6.4456 2.83982,9.29781c-1.94414,2.85222 -4.63953,3.90445 -8.38411,1.6473c-6.39524,-3.85491 -6.64314,-7.71286 -4.699,-10.56508z" fill="#f51130" stroke="#3f0b24"/><path d="M261.88615,188.61625l1.1635,-4.32393l2.84557,3.72736z" data-paper-data="{&quot;index&quot;:null}" fill="#fef9ff" stroke="#241f26"/><path d="M262.75601,193.06905l-4.50959,-1.2861l3.59936,-2.66358z" data-paper-data="{&quot;index&quot;:null}" fill="#fef9ff" stroke="#241f26"/></g><path d="M239.55025,193.01729c-0.57747,-5.84701 2.50299,-9.16545 6.5137,-9.5106c4.01071,-0.34515 8.00998,2.19675 8.28466,8.48804c0.17266,3.95487 -3.07103,5.45029 -7.08174,5.79544c-4.01071,0.34515 -7.3276,-0.83389 -7.71662,-4.77288z" fill="#f51130" stroke="#3f0b24" stroke-linecap="butt"/><g data-paper-data="{&quot;index&quot;:null}"><path d="M248.10142,196.39238c4.90265,0.0048 7.64123,5.10454 6.90895,4.96261c-0.46291,-0.08972 -15.16405,-0.28193 -15.16405,-0.28193l0.22394,-5.32133" fill="#f51130" stroke="#3f0b24" stroke-linecap="round"/><path d="M250.34296,201.35156l1.97211,-2.96385l4.02686,3.07538z" fill="#fef9ff" stroke="#241f26" stroke-linecap="butt"/><path d="M246.34364,201.27722l1.9721,-2.96385l4.02686,3.07539z" fill="#fef9ff" stroke="#241f26" stroke-linecap="butt"/><path d="M242.59429,201.20751l1.9721,-2.96385l4.02686,3.07538z" fill="#fef9ff" stroke="#241f26" stroke-linecap="butt"/></g><path d="M221.95855,191.50188c0.25889,-5.87065 4.0839,-8.73066 8.46424,-8.51722c4.38035,0.21344 8.3128,3.28454 7.66012,9.55327c-0.4103,3.94069 -4.13643,4.97263 -8.51678,4.75919c-4.38035,-0.21344 -7.782,-1.84034 -7.60758,-5.79525z" fill="#f51130" stroke="#3f0b24" stroke-linecap="butt"/><path d="M249.625,188.27292c0,4.8555 -4.14137,8.79166 -9.25,8.79166c-5.10863,0 -9.25,-3.93616 -9.25,-8.79166c0,-4.8555 4.14137,-8.79167 9.25,-8.79167c5.10863,0 9.25,3.93617 9.25,8.79167z" fill="#fef9ff" stroke="#241f26" stroke-linecap="butt"/><g stroke-linecap="butt"><path d="M224.98918,187.92263c-4.3683,0.18592 -6.22942,-2.0296 -6.5684,-5.4647c-0.33898,-3.4351 1.53642,-6.09703 6.94928,-6.79864c4.33598,-0.56204 8.46854,1.80864 8.80753,5.24374c0.33898,3.4351 -1.72793,6.70208 -9.1884,7.01961z" fill="#f51130" stroke="#3f0b24"/><path d="M215.41609,179.78395l4.28407,-1.90715l-1.05161,4.35249z" data-paper-data="{&quot;index&quot;:null}" fill="#fef9ff" stroke="#241f26"/><path d="M218.44282,182.6902l1.88206,4.06299l-4.5742,-1.03301z" data-paper-data="{&quot;index&quot;:null}" fill="#fef9ff" stroke="#241f26"/></g><path d="M256.75771,174.71466c-0.15849,7.55203 -7.77315,7.96675 -14.69972,7.97425c-6.92656,0.00749 -10.46139,-2.81181 -10.4646,-5.78034c-0.00321,-2.96853 5.60928,-5.38108 12.53585,-5.38857c6.92656,-0.00749 12.69075,0.22678 12.62846,3.19466z" fill="#fef9ff" stroke="#241f26" stroke-linecap="butt"/><path d="M238.88384,174.63743l6.13702,0.95209l-2.9477,4.56573z" fill="#fef9ff" stroke="#241f26" stroke-linecap="butt"/><path d="M251.84699,177.7954l-1.69234,-4.37338l3.14797,-0.01278z" data-paper-data="{&quot;index&quot;:null}" fill="#fef9ff" stroke="#241f26" stroke-linecap="butt"/><g stroke="#3f0b24"><path d="M242.12318,161.51331c-0.12409,-2.54362 1.36849,-4.90585 4.07563,-5.03792c2.70714,-0.13207 4.07905,2.3129 4.20314,4.85651c0.12409,2.54362 -1.04662,4.22269 -3.75376,4.35475c-2.70714,0.13207 -4.40091,-1.62973 -4.525,-4.17336z" fill="#f51130" stroke-linecap="butt"/><path d="M242.35961,160.37404l7.73676,2.95985" fill="none" stroke-linecap="round"/></g><path d="M259.88599,172.74444c-2.45949,2.30858 -5.98163,0.21344 -8.51488,0.34452c-2.55116,0.13201 -5.39075,4.13692 -11.6608,2.43927c-0.29512,-0.10912 -0.55159,1.62031 -3.35863,1.64601c-8.0078,0.07332 -10.765,1.66467 -11.24547,-8.18398c-0.28556,-5.85339 5.87181,-8.31375 9.64566,-8.64694c5.76199,-0.50872 5.09823,5.11035 10.62156,5.07494c3.14351,-0.02015 2.21744,-2.30405 9.95277,-2.59422c7.71963,-0.28958 6.02439,8.54568 4.5598,9.92041z" fill="#f51130" stroke="#3f0b24" stroke-linecap="butt"/><path d="M236.12832,169.17563c4.36908,-0.02105 3.64339,6.27437 3.64339,6.27437" fill="none" stroke="#3f0b24" stroke-linecap="round"/><path d="M236.16888,160.88603c-0.12409,-2.54362 1.36849,-4.90585 4.07563,-5.03792c2.70714,-0.13207 4.07905,2.3129 4.20314,4.85651c0.12409,2.54362 -1.04662,4.22269 -3.75376,4.35475c-2.70714,0.13207 -4.40091,-1.62973 -4.525,-4.17336z" fill="#fef9ff" stroke="#241f26" stroke-linecap="butt"/><path d="M242.05714,161.01454c0.05719,1.17222 -0.4368,2.14884 -1.10336,2.18136c-0.66656,0.03252 -1.25326,-0.89138 -1.31045,-2.0636c-0.05719,-1.17222 0.4368,-2.14884 1.10336,-2.18136c0.66656,-0.03252 1.25326,0.89138 1.31045,2.0636z" fill="#241f26" stroke="#241f26" stroke-linecap="butt"/><path d="M253.7766,165.23287c-0.01009,-0.20686 0.14942,-0.38274 0.35628,-0.39283c0.20686,-0.01009 0.38274,0.14942 0.39283,0.35628c0.01009,0.20686 -0.14942,0.38274 -0.35628,0.39283c-0.20686,0.01009 -0.38274,-0.14942 -0.39283,-0.35628z" fill="#3f0b24" stroke="#3f0b24" stroke-linecap="butt"/><g stroke-linecap="butt"><path d="M230.95834,193.97604c0,3.33672 -2.05203,6.04166 -4.58334,6.04166c-2.53131,0 -4.58334,-2.70494 -4.58334,-6.04166c0,-3.33672 2.05203,-6.04167 4.58334,-6.04167c2.53131,0 4.58334,2.70495 4.58334,6.04167z" fill="#f51130" stroke="#3f0b24"/><path d="M222.20834,191.68437l-0.91667,-5.33333l4.16667,2.41666z" fill="#fef9ff" stroke="#241f26"/><path d="M227.70833,189.10104l4.16667,-2.41667l-0.91667,5.33333z" data-paper-data="{&quot;index&quot;:null}" fill="#fef9ff" stroke="#241f26"/><path d="M224.29167,189.43438l2.25,-4.16666l2.08333,4.5z" data-paper-data="{&quot;index&quot;:null}" fill="#fef9ff" stroke="#241f26"/></g><path d="M258.03779,165.35871c-0.01009,-0.20686 0.14942,-0.38274 0.35628,-0.39283c0.20686,-0.01009 0.38274,0.14942 0.39283,0.35628c0.01009,0.20686 -0.14942,0.38274 -0.35628,0.39283c-0.20686,0.01009 -0.38274,-0.14942 -0.39283,-0.35628z" fill="#3f0b24" stroke="#3f0b24" stroke-linecap="butt"/></g></g></svg>