<svg version="1.1" xmlns="http://www.w3.org/2000/svg" xmlns:xlink="http://www.w3.org/1999/xlink" width="475.49397" height="374.96096" viewBox="0,0,475.49397,374.96096"><g transform="translate(-2.25304,7.48048)"><g data-paper-data="{&quot;isPaintingLayer&quot;:true}" fill-rule="nonzero" stroke-linejoin="miter" stroke-miterlimit="10" stroke-dasharray="" stroke-dashoffset="0" style="mix-blend-mode: normal"><path d="M229.97027,235.2011c0,0 -5.22473,-0.99261 -5.53207,-8.07786c-0.27232,-6.27797 -0.41052,-34.27279 -0.41052,-34.27279c0,0 1.00654,-6.78773 2.44341,-8.74893c1.88076,-2.56709 -2.03289,-8.54501 -2.03289,-8.54501h24.6117c0,0 -3.39871,6.62054 -2.08154,9.30898c1.24755,2.54631 2.20188,7.5292 2.20188,7.5292c0,0 0.10297,28.93546 -0.12034,34.57487c-0.30734,7.76112 -5.83942,8.23152 -5.83942,8.23152z" fill="#d20033" stroke="#3e3e3e" stroke-width="3.5" stroke-linecap="butt"/><path d="M207.6978,156.48799c0,-16.0418 13.00444,-29.04625 29.04625,-29.04625c16.0418,0 29.04625,13.00444 29.04625,29.04625c0,16.0418 -13.00445,29.04625 -29.04625,29.04625c-16.0418,0 -29.04625,-13.00445 -29.04625,-29.04625z" fill="#efefef" stroke="#3e3e3e" stroke-width="3.5" stroke-linecap="butt"/><path d="M241.48007,153.79865v15.65064" fill="none" stroke="#3e3e3e" stroke-width="3.5" stroke-linecap="round"/><path d="M249.95613,169.44711v-15.65064" fill="none" stroke="#3e3e3e" stroke-width="3.5" stroke-linecap="round"/><path d="M236.03895,177.82198" fill="none" stroke="#3e3e3e" stroke-width="3.5" stroke-linecap="round"/><path d="M207.08066,162.50533c-6.59688,-13.84726 4.69982,-25.34388 10.14426,-30.00441c8.43543,-7.22084 25.09508,-8.77603 34.76409,-2.53357c6.4389,4.15703 24.14153,17.21246 24.14153,17.21246c0,0 -11.48349,6.79963 -21.84815,1.55359c-6.72828,-3.40549 -25.78199,1.74363 -25.78199,1.74363c0,0 -10.39998,12.95299 -21.41975,12.02828z" fill="#e2dc3c" stroke="#5d5a03" stroke-width="3.5" stroke-linecap="round"/><path d="M248.88957,226.71361l-1.15745,5.26112l-5.26112,3.15668l-13.25803,-0.31567l-4.52456,-5.78723l0.05176,-7.97753c0,0 4.4997,-1.58813 6.6418,-1.35862c1.68112,0.18013 5.4132,3.19835 8.41297,3.92604c4.37665,1.06169 7.99066,-0.09828 7.99066,-0.09828z" fill="#2361c9" stroke="#3e3e3e" stroke-width="3.5" stroke-linecap="round"/><path d="M233.58093,178.93745c0,0 -8.58586,-0.10661 -9.78101,-4.90347" fill="none" stroke="#3e3e3e" stroke-width="3.5" stroke-linecap="round"/><path d="M199.54593,149.09805l-3.02958,-8.58248l8.1159,-2.93529c0,0 -3.66303,-8.37631 -0.85759,-16.64724c2.88112,-4.8817 6.213,-7.82276 11.43457,-9.10426c3.80325,-0.9334 8.58342,-1.10878 15.04784,0.0884c8.43725,1.56253 13.25301,12.24678 13.25301,12.24678l11.61484,-3.02345c0,0 3.54759,5.3999 4.31997,7.02132c0.37557,0.7884 0.05862,2.17038 0.05862,2.17038c0,0 -0.70159,1.05023 -2.18255,1.63837c-9.71605,3.8584 -45.99047,18.33753 -51.29235,20.34751c-1.23235,0.4672 -2.78724,1.02133 -4.30098,0.26943c-1.51374,-0.75189 -2.18169,-3.48945 -2.18169,-3.48945z" fill="#4aa0f1" stroke="#3e3e3e" stroke-width="3.5" stroke-linecap="butt"/><path d="M246.04853,233.80287c0,0 4.47081,-9.06895 10.08773,-9.29151c9.14197,-0.36223 9.37293,13.73976 9.37293,13.73976" fill="none" stroke="#3e3e3e" stroke-width="3.5" stroke-linecap="round"/><g stroke-width="3.5"><path d="M264.00401,244.45067v-4.90625h12.01533v4.90625z" fill="#de9631" stroke="none" stroke-linecap="butt"/><path d="M262.92918,239.03067c0,0 9.09518,-1.88136 11.76131,-0.22687c2.28075,1.41532 2.22254,6.37364 2.22254,6.37364h-13.98386z" data-paper-data="{&quot;index&quot;:null}" fill="none" stroke="#3e3e3e" stroke-linecap="round"/></g><path d="M225.07122,231.83686l-11.91083,16.95999" fill="none" stroke="#3e3e3e" stroke-width="3.5" stroke-linecap="round"/><path d="M225.77371,184.85486c0,0 -7.9493,15.13136 -12.11299,17.17238c-10.3008,5.04941 -27.78191,-7.73434 -27.78191,-7.73434" fill="none" stroke="#3e3e3e" stroke-width="3.5" stroke-linecap="round"/><path d="M2.25304,367.48048v-374.96096h475.49397v374.96096z" fill="none" stroke="none" stroke-width="0" stroke-linecap="butt"/><path d="M232.86927,128.64543c0,2.26483 0.08263,5.30274 -1.77867,6.71976c-1.65631,1.26095 -5.11212,1.03024 -7.53383,1.03024c-2.31717,0 -5.56168,0.54569 -7.19128,-0.61972c-1.98745,-1.42131 -2.12122,-4.77846 -2.12122,-7.13028c0,-4.2802 4.16935,-7.75 9.3125,-7.75c5.14315,0 9.3125,3.4698 9.3125,7.75z" fill="#2361c9" stroke="#3e3e3e" stroke-width="3.5" stroke-linecap="butt"/><g stroke="#3e3e3e" stroke-width="3.5" stroke-linecap="round"><path d="M182.87374,177.2311c0,0 -4.87121,0.74989 -6.3813,-0.67037c-1.26288,-1.18775 -1.88112,-5.47065 -1.88112,-5.47065l3.41242,-7.16343c0,0 5.04737,-0.44268 6.57515,0.73431c1.56548,1.20604 2.70743,6.41689 2.70743,6.41689" fill="#716868"/><path d="M187.39018,168.47769c0,0 6.25483,-1.48689 10.97657,2.36708c5.49901,4.48839 4.73901,10.91403 4.73901,10.91403c0,0 5.37546,0.49391 4.47368,2.46137c-0.90178,1.96745 -15.00022,20.50479 -15.00022,20.50479l-4.32048,-2.21268l7.9461,-12.46076c0,0 -6.12775,2.07779 -11.66021,-2.36929c-4.75047,-3.8185 -4.59486,-10.24576 -4.59486,-10.24576" data-paper-data="{&quot;index&quot;:null}" fill="#a20349"/><path d="M189.52729,199.35739c0,0 -3.73976,-1.10837 -4.72788,-4.48254c-0.90675,-3.09626 1.35347,-5.65037 1.35347,-5.65037" fill="none"/></g><path d="M209.40588,248.92632c0,0 -6.20308,-11.30533 -0.51786,-16.57161c4.32789,-4.00897 6.66449,-1.42943 7.8974,0.90626c1.66704,3.15813 -2.20092,15.66534 -2.20092,15.66534z" fill="#de9631" stroke="#3e3e3e" stroke-width="3.5" stroke-linecap="butt"/><path d="M248.67868,184.94702l10.6,34.6" fill="none" stroke="#3e3e3e" stroke-width="3.5" stroke-linecap="round"/><path d="M257.47823,218.57533c0,-2.05577 0,-7.94309 0,-11.56052c0,-1.74767 0.98653,-2.96553 2.11105,-2.96553c0.97373,0 2.05094,0 2.6807,0c1.00225,0 2.61369,1.21771 2.61369,2.96553c0,3.61285 0,9.4907 0,11.56052c0,1.42631 -0.20638,3.13307 -2.19482,3.21684c-1.3478,0.05678 -2.16825,-0.024 -3.19622,0c-1.25319,0.02927 -2.01439,-1.83103 -2.01439,-3.21684z" fill="#00b5ff" stroke="#3e3e3e" stroke-width="3.5" stroke-linecap="butt"/><path d="M243.87523,152.65725c0,0 -2.26445,-0.0608 -3.51429,-0.68571c-1.24984,-0.62492 -2.77143,-2.45714 -2.77143,-2.45714" fill="none" stroke="#3e3e3e" stroke-width="3.5" stroke-linecap="round"/><path d="M254.58951,149.37153c0,0 -1.5216,1.83222 -2.77143,2.45714c-1.24983,0.62492 -3.51429,0.68571 -3.51429,0.68571" data-paper-data="{&quot;index&quot;:null}" fill="none" stroke="#3e3e3e" stroke-width="3.5" stroke-linecap="round"/></g></g></svg>